<svg width="568" height="124" viewBox="0 0 568 124" fill="none" xmlns="http://www.w3.org/2000/svg">
<path d="M72.5462 38.0462C70.8949 41.2308 68.9487 43.9436 66.7077 46.1846C64.4667 48.3077 61.9897 50.0179 59.2769 51.3154C60.3385 51.4333 61.459 51.6692 62.6385 52.0231C63.818 52.3769 64.9385 52.9667 66 53.7923C67.1795 54.6179 68.1821 55.7385 69.0077 57.1538C69.9513 58.4513 70.659 60.1026 71.1308 62.1077C71.3667 63.5231 71.4256 65.0564 71.3077 66.7077C71.1897 68.1231 70.9538 69.7154 70.6 71.4846C70.3641 73.2538 69.7744 75.0821 68.8308 76.9692C68.241 78.2667 67.2974 79.9769 66 82.1C64.7026 84.2231 62.8154 86.3462 60.3385 88.4692C57.9795 90.4744 54.9128 92.3026 51.1385 93.9538C47.3641 95.6051 42.7641 96.6667 37.3385 97.1385C29.0821 97.7282 22.5359 97.0795 17.7 95.1923C12.9821 93.4231 9.32564 91.241 6.73077 88.6462C4.25385 86.0513 2.60256 83.3974 1.77692 80.6846C1.06923 77.9718 0.65641 75.9667 0.538462 74.6692C0.420513 72.6641 0.479487 70.6 0.715385 68.4769C1.06923 66.2359 1.71795 63.8769 2.66154 61.4C3.01538 60.9282 3.42821 60.4564 3.9 59.9846C4.37179 59.6308 4.90256 59.2179 5.49231 58.7462C6.2 58.2744 7.02564 57.8615 7.96923 57.5077C9.50256 56.9179 11.3308 56.6231 13.4538 56.6231C15.5769 56.6231 17.641 57.2718 19.6462 58.5692C19.6462 58.6872 19.7051 58.7462 19.8231 58.7462C19.8231 58.8641 19.8231 58.9231 19.8231 58.9231C19.941 58.9231 20 58.9821 20 59.1C20 59.2179 19.941 59.3359 19.8231 59.4538H19.6462C18.5846 59.6897 17.759 60.5744 17.1692 62.1077C17.0513 62.3436 16.8154 63.1692 16.4615 64.5846C16.1077 66 15.8718 67.7692 15.7538 69.8923C15.6359 71.8974 15.6949 74.1385 15.9308 76.6154C16.2846 78.9744 17.0513 81.2154 18.2308 83.3385C19.4103 85.3436 21.1205 87.1128 23.3615 88.6462C25.7205 90.1795 28.8462 91.1231 32.7385 91.4769C37.4564 91.9487 41.5256 91.359 44.9462 89.7077C48.3667 88.0564 51.0795 85.9333 53.0846 83.3385C55.0897 80.7436 56.3872 77.8538 56.9769 74.6692C57.5667 71.3667 57.4487 68.3 56.6231 65.4692C55.7974 62.6385 54.2051 60.2795 51.8462 58.3923C49.4872 56.5051 46.4205 55.5026 42.6462 55.3846H40.5231H40.1692C39.8154 55.3846 39.5795 55.3256 39.4615 55.2077C37.9282 61.5769 36.9846 67.0615 36.6308 71.6615C36.2769 76.1436 36.1 79.2103 36.1 80.8615C36.1 81.2154 36.041 81.5103 35.9231 81.7462C35.6872 82.2179 35.3333 82.4538 34.8615 82.4538C31.559 82.2179 28.9641 81.6282 27.0769 80.6846C25.1897 79.6231 23.8333 78.6205 23.0077 77.6769C22.7718 77.3231 22.7128 76.3205 22.8308 74.6692C23.0667 73.0179 23.4205 71.0128 23.8923 68.6538C24.3641 66.2949 24.8949 63.641 25.4846 60.6923C26.1923 57.7436 26.9 54.8538 27.6077 52.0231C26.1923 52.6128 24.3641 53.2026 22.1231 53.7923C19.8821 54.2641 17.9949 54.0282 16.4615 53.0846C15.4 52.3769 14.2205 51.4333 12.9231 50.2538C11.7436 49.0744 10.5641 47.7179 9.38462 46.1846C8.32308 44.6513 7.32051 43.059 6.37692 41.4077C5.43333 39.7564 4.66667 38.2231 4.07692 36.8077C3.48718 35.3923 3.60513 33.741 4.43077 31.8538C5.25641 29.8487 6.4359 27.8436 7.96923 25.8385C9.62051 23.7154 11.3897 21.7103 13.2769 19.8231C15.1641 17.9359 16.9333 16.3436 18.5846 15.0462C19.8821 13.9846 21.7103 12.6872 24.0692 11.1538C26.5462 9.50256 29.259 7.96923 32.2077 6.55385C35.1564 5.13846 38.2821 3.9 41.5846 2.83846C44.8872 1.65898 48.1308 0.951283 51.3154 0.715382C54.5 0.479486 57.4487 0.774359 60.1615 1.6C62.9923 2.42564 65.4103 4.07693 67.4154 6.55385C70.0103 9.50256 71.9564 12.6282 73.2538 15.9308C74.4333 18.7615 75.141 22.1231 75.3769 26.0154C75.6128 29.7897 74.6692 33.8 72.5462 38.0462ZM41.2308 48.4846C42.4103 48.0128 43.8256 47.4231 45.4769 46.7154C47.1282 45.8897 48.8385 45.0051 50.6077 44.0615C52.4949 43 54.3231 41.8205 56.0923 40.5231C57.9795 39.1077 59.7487 37.4564 61.4 35.5692C65.1744 30.9692 67.4154 26.9 68.1231 23.3615C68.8308 19.7051 68.7128 16.9333 67.7692 15.0462C67.1795 14.1026 66.1769 13.2769 64.7615 12.5692C63.4641 11.7436 61.6359 11.3308 59.2769 11.3308C56.918 11.2128 53.9692 11.6256 50.4308 12.5692C46.8923 13.5128 42.7051 15.1641 37.8692 17.5231C33.0333 19.8821 29.0821 22.4769 26.0154 25.3077C23.0667 28.1385 20.8256 30.9103 19.2923 33.6231C17.8769 36.3359 17.1103 38.8718 16.9923 41.2308C16.9923 43.4718 17.4641 45.1231 18.4077 46.1846C20.059 47.8359 21.8872 48.7205 23.8923 48.8385C25.8974 48.8385 27.4308 48.7205 28.4923 48.4846C29.4359 44.8282 30.2615 41.5846 30.9692 38.7538C31.7949 35.8051 32.4436 33.6821 32.9154 32.3846C33.5051 30.3795 33.8 28.7872 33.8 27.6077C33.8 26.3103 33.6821 25.3667 33.4462 24.7769C33.3282 24.659 33.3282 24.4821 33.4462 24.2462C33.6821 23.7744 34.0949 23.5385 34.6846 23.5385C37.0436 23.5385 39.1077 23.9513 40.8769 24.7769C42.6462 25.6026 44.0026 26.3103 44.9462 26.9C45.1821 27.1359 45.4179 27.4308 45.6538 27.7846C46.1256 28.3744 46.2436 29.3179 46.0077 30.6154C45.6538 31.9128 45.241 33.5641 44.7692 35.5692C44.2974 37.4564 43.8256 39.2846 43.3538 41.0538C42.8821 43.1769 42.2923 45.359 41.5846 47.6C41.4667 47.8359 41.4077 48.0128 41.4077 48.1308C41.4077 48.1308 41.3487 48.2487 41.2308 48.4846ZM123.009 61.7538C124.66 62.6974 125.78 63.8179 126.37 65.1154C126.724 65.7051 126.96 66.2949 127.078 66.8846C126.37 71.2487 125.191 74.9051 123.539 77.8538C122.006 80.6846 120.414 82.9256 118.762 84.5769C116.757 86.5821 114.693 88.1154 112.57 89.1769C108.678 88.2333 105.375 86.9949 102.662 85.4615C100.068 83.8103 98.5932 81.8641 98.2394 79.6231C98.1214 79.1513 98.0625 78.3846 98.0625 77.3231C96.765 80.0359 95.5855 82.2179 94.524 83.8692C93.4625 85.5205 92.5189 86.759 91.6932 87.5846C90.7496 88.6462 89.865 89.2949 89.0394 89.5308C86.7984 88.941 84.9702 88.1744 83.5548 87.2308C82.1394 86.2872 80.9599 85.2846 80.0163 84.2231C78.9548 83.0436 78.1291 81.7462 77.5394 80.3308C76.7138 74.6692 76.4779 69.4795 76.8317 64.7615C77.1855 59.9256 77.7753 55.6795 78.6009 52.0231C79.5445 48.2487 80.5471 45.0641 81.6086 42.4692C82.6702 39.8744 83.4958 38.0462 84.0855 36.9846C84.2035 36.7487 84.3804 36.5128 84.6163 36.2769C85.2061 35.6872 85.7958 35.2744 86.3855 35.0385C87.8009 34.5667 89.1573 34.5077 90.4548 34.8615C91.8702 35.2154 93.1086 35.6872 94.1702 36.2769C95.4676 36.8667 96.4702 37.5744 97.1779 38.4C97.8855 39.2256 98.4753 39.9333 98.9471 40.5231C99.183 40.9949 99.065 41.3487 98.5932 41.5846C98.3573 41.7026 98.1214 41.7026 97.8855 41.5846C97.5317 41.5846 97.2368 41.7026 97.0009 41.9385L96.824 42.1154C94.2291 45.8897 92.342 50.0769 91.1625 54.6769C90.1009 59.2769 89.3343 63.641 88.8625 67.7692C88.3907 72.4872 88.2727 77.3231 88.5086 82.2769C89.8061 81.8051 91.1625 80.1538 92.5779 77.3231C94.1112 74.3744 95.5266 71.0718 96.824 67.4154C98.1214 63.759 99.3009 60.1026 100.362 56.4462C101.424 52.6718 102.25 49.6641 102.839 47.4231C103.193 46.0077 103.488 44.7103 103.724 43.5308C104.078 42.3513 104.373 41.2897 104.609 40.3462V40.1692C104.727 39.9333 104.786 39.6385 104.786 39.2846C104.903 38.8128 105.08 38.341 105.316 37.8692C105.316 37.7513 105.434 37.5744 105.67 37.3385C105.788 36.9846 106.201 36.8077 106.909 36.8077C107.97 37.1615 109.386 37.7513 111.155 38.5769C113.042 39.2846 114.693 40.2872 116.109 41.5846H116.286C116.403 41.7026 116.58 41.9974 116.816 42.4692C117.17 42.8231 117.229 43.3538 116.993 44.0615C116.875 44.1795 116.816 44.2974 116.816 44.4154C115.165 49.959 113.868 55.1487 112.924 59.9846C112.098 64.8205 111.45 69.0667 110.978 72.7231C110.506 76.9692 110.152 80.9205 109.916 84.5769C112.983 83.2795 115.342 81.3333 116.993 78.7385C118.762 76.1436 120.119 73.6077 121.062 71.1308C122.124 68.1821 122.773 65.0564 123.009 61.7538ZM161.915 40.8769C162.033 40.9949 162.21 41.2308 162.446 41.5846C162.8 41.9385 162.859 42.5282 162.623 43.3538C162.505 43.3538 162.446 43.4128 162.446 43.5308V43.7077C161.266 46.7744 160.264 49.7231 159.438 52.5538C158.73 55.3846 158.082 57.9795 157.492 60.3385C157.374 60.9282 157.079 61.341 156.607 61.5769C156.372 61.6949 156.195 61.6949 156.077 61.5769C153.364 61.1051 151.241 60.5744 149.707 59.9846C148.292 59.2769 147.172 58.6872 146.346 58.2154C145.756 57.9795 145.461 57.5077 145.461 56.8V55.7385L147.054 49.9C144.459 52.9667 142.159 56.5051 140.154 60.5154C138.148 64.5256 136.438 68.4179 135.023 72.1923C133.607 75.9667 132.487 79.3282 131.661 82.2769C130.954 85.2256 130.482 87.1718 130.246 88.1154V88.6462C130.246 88.8821 130.187 89.059 130.069 89.1769C129.833 89.4128 129.597 89.5308 129.361 89.5308C128.536 89.2949 127.297 89.059 125.646 88.8231C124.113 88.4692 122.402 87.8205 120.515 86.8769C120.161 86.759 119.984 86.5231 119.984 86.1692V85.8154C119.748 83.2205 119.807 80.0949 120.161 76.4385C120.397 72.7821 120.869 68.9487 121.577 64.9385C122.284 60.8103 123.11 56.6231 124.054 52.3769C124.997 48.0128 125.941 43.8846 126.884 39.9923C127.002 39.4026 126.943 38.9897 126.707 38.7538C126.589 38.5179 126.589 38.1051 126.707 37.5154C126.825 37.1615 127.179 36.9846 127.769 36.9846H127.946H128.477H128.654C128.772 37.1026 128.889 37.1615 129.007 37.1615H129.184C130.246 37.5154 131.661 38.1051 133.43 38.9308C135.318 39.6385 136.969 40.641 138.384 41.9385L138.561 42.1154C138.679 42.1154 138.856 42.2923 139.092 42.6462C139.328 42.8821 139.387 43.2949 139.269 43.8846C139.269 44.1205 139.21 44.2974 139.092 44.4154V44.7692C138.856 45.4769 138.738 45.8897 138.738 46.0077C138.148 48.3667 137.5 50.7846 136.792 53.2615C136.084 55.7385 135.436 58.2744 134.846 60.8692C137.559 55.3256 140.33 50.6667 143.161 46.8923C145.992 43 148.233 40.1103 149.884 38.2231C150.002 38.2231 150.061 38.1641 150.061 38.0462C150.415 37.9282 150.769 37.5744 151.123 36.9846C151.595 36.5128 152.184 36.2769 152.892 36.2769C153.246 36.2769 153.541 36.3359 153.777 36.4538C154.956 36.9256 156.254 37.5154 157.669 38.2231C159.202 38.9308 160.559 39.8154 161.738 40.8769H161.915ZM203.791 106.162C203.437 109.346 202.14 112.059 199.899 114.3C197.658 116.541 194.827 118.31 191.406 119.608C187.986 121.023 184.094 121.967 179.729 122.438C175.483 123.028 171.119 123.264 166.637 123.146C162.273 123.028 157.909 122.615 153.545 121.908C149.181 121.2 145.288 120.256 141.868 119.077C140.924 118.841 140.276 118.428 139.922 117.838C139.45 117.367 139.096 116.836 138.86 116.246C138.624 115.656 138.506 115.008 138.506 114.3C138.624 113.003 138.86 111.528 139.214 109.877C139.45 108.226 139.863 106.574 140.452 104.923C140.924 103.39 141.573 101.974 142.399 100.677C143.106 99.4974 144.109 98.6718 145.406 98.2C146.232 97.9641 147.176 97.7872 148.237 97.6692C150.006 97.4333 152.247 97.7872 154.96 98.7308C155.078 98.7308 155.255 98.7897 155.491 98.9077C155.845 99.2615 156.022 99.4385 156.022 99.4385C155.904 99.6744 155.727 99.7923 155.491 99.7923C155.255 99.7923 155.078 99.7923 154.96 99.7923C154.017 99.9103 153.073 100.205 152.129 100.677C151.186 101.267 150.596 102.21 150.36 103.508C150.242 104.805 151.127 105.985 153.014 107.046C154.783 108.226 157.142 109.11 160.091 109.7C163.04 110.29 166.283 110.644 169.822 110.762C173.36 110.997 176.781 110.821 180.083 110.231C183.386 109.641 186.276 108.697 188.752 107.4C191.229 106.221 192.94 104.51 193.883 102.269C194.827 99.7923 194.65 97.9051 193.352 96.6077C192.055 95.4282 190.168 94.6026 187.691 94.1308C185.214 93.7769 182.324 93.6 179.022 93.6C175.837 93.7179 172.77 93.7769 169.822 93.7769C169.232 93.7769 168.937 93.541 168.937 93.0692V92.8923C168.701 91.0051 168.229 89.2359 167.522 87.5846C166.932 85.9333 166.342 84.5769 165.752 83.5154C165.635 83.2795 165.635 83.0436 165.752 82.8077C165.87 82.5718 165.929 82.3949 165.929 82.2769C166.991 80.9795 168.111 79.6231 169.291 78.2077C170.588 76.7923 171.945 75.4949 173.36 74.3154H173.006C170.765 74.3154 168.937 74.0205 167.522 73.4308C166.106 72.7231 164.986 72.0154 164.16 71.3077C163.217 70.4821 162.509 69.4795 162.037 68.3C160.74 65.7051 160.15 63.2872 160.268 61.0462C160.268 58.6872 160.622 56.6231 161.329 54.8538C161.919 53.0846 162.686 51.5513 163.629 50.2538C164.691 48.9564 165.517 48.0128 166.106 47.4231C166.224 47.1872 166.46 47.0103 166.814 46.8923C167.522 46.6564 168.17 46.5385 168.76 46.5385C171.355 46.7744 173.242 47.4821 174.422 48.6615C175.601 49.841 176.368 50.9026 176.722 51.8462C176.84 52.0821 176.899 52.3179 176.899 52.5538C176.899 53.0256 176.604 53.5564 176.014 54.1462C173.655 55.9154 172.063 57.6846 171.237 59.4538C170.411 61.2231 169.94 62.8744 169.822 64.4077C169.704 66.1769 169.94 67.8282 170.529 69.3615C172.652 70.4231 174.717 70.7769 176.722 70.4231C178.373 70.1872 179.965 69.3615 181.499 67.9462C183.15 66.4128 184.329 63.641 185.037 59.6308C185.273 59.159 185.273 58.0974 185.037 56.4462C184.801 54.7949 184.211 53.0846 183.268 51.3154C182.324 49.4282 181.027 47.7179 179.376 46.1846C177.724 44.5333 175.601 43.5308 173.006 43.1769C172.77 43.4128 172.535 43.5897 172.299 43.7077C172.063 43.8256 171.768 43.9436 171.414 44.0615C171.178 44.1795 170.942 44.1205 170.706 43.8846C170.117 43.6487 169.822 42.8231 169.822 41.4077C169.94 39.9923 170.647 38.6359 171.945 37.3385C173.596 35.6872 175.66 34.8026 178.137 34.6846C180.614 34.4487 183.327 35.3333 186.276 37.3385C189.578 39.5795 192.173 42.5872 194.06 46.3615C196.065 50.0179 196.832 53.6154 196.36 57.1538C196.124 58.9231 195.594 60.6923 194.768 62.4615C194.06 64.2308 193.117 65.8231 191.937 67.2385C190.876 68.5359 189.637 69.5974 188.222 70.4231C186.806 71.1308 185.214 71.4256 183.445 71.3077C184.742 71.4256 185.981 71.6026 187.16 71.8385C188.458 72.0744 189.755 72.841 191.052 74.1385C191.524 74.9641 191.937 75.8487 192.291 76.7923C192.527 77.6179 192.645 78.5026 192.645 79.4462C192.645 80.3897 192.291 81.3923 191.583 82.4538C191.583 82.5718 191.465 82.6897 191.229 82.8077C190.758 83.0436 190.286 83.1026 189.814 82.9846C189.696 82.9846 189.519 82.7487 189.283 82.2769C189.165 82.041 189.106 81.8051 189.106 81.5692C188.988 81.3333 188.694 81.0385 188.222 80.6846C187.75 80.2128 186.983 79.9179 185.922 79.8C184.978 79.6821 183.681 79.9179 182.029 80.5077C180.378 80.9795 178.314 82.1 175.837 83.8692C178.432 84.6949 181.44 85.6385 184.86 86.7C188.281 87.6436 191.406 88.941 194.237 90.5923C197.186 92.2436 199.604 94.3077 201.491 96.7846C203.378 99.3795 204.145 102.505 203.791 106.162ZM241.868 67.9462C240.217 73.9615 237.799 78.4436 234.615 81.3923C231.548 84.341 228.363 86.4051 225.061 87.5846C222.23 88.5282 219.517 89 216.922 89C214.445 89 212.558 88.8821 211.261 88.6462C208.076 88.0564 205.54 86.9949 203.653 85.4615C201.766 83.8103 200.351 81.9231 199.407 79.8C198.581 77.6769 198.109 75.4949 197.992 73.2538C197.756 70.8949 197.756 68.6538 197.992 66.5308C198.227 64.0538 198.64 61.8128 199.23 59.8077C199.82 57.6846 200.409 55.9744 200.999 54.6769C202.061 52.2 203.24 49.9 204.538 47.7769C205.835 45.5359 207.251 43.5897 208.784 41.9385C210.317 40.2872 211.851 38.9897 213.384 38.0462C215.035 37.1026 216.745 36.6897 218.515 36.8077C220.048 37.0436 221.581 37.3974 223.115 37.8692C224.412 38.341 225.827 38.9897 227.361 39.8154C228.894 40.641 230.309 41.8205 231.607 43.3538C231.725 43.4718 232.02 43.8846 232.492 44.5923C233.081 45.3 233.494 46.3026 233.73 47.6C233.966 48.8974 233.848 50.4308 233.376 52.2C233.022 53.9692 231.961 55.9154 230.192 58.0385C228.54 60.1615 226.004 62.5205 222.584 65.1154C219.281 67.5923 214.799 70.1872 209.138 72.9C208.902 74.6692 208.784 76.2026 208.784 77.5C208.902 78.7974 209.079 79.9179 209.315 80.8615C209.551 81.9231 209.786 82.7487 210.022 83.3385C210.494 84.0462 211.32 84.5769 212.499 84.9308C213.679 85.1667 214.976 85.2256 216.392 85.1077C217.807 84.9897 219.163 84.8128 220.461 84.5769C221.876 84.2231 223.056 83.8692 223.999 83.5154C226.358 82.5718 228.304 81.2744 229.838 79.6231C231.489 77.9718 232.845 76.2615 233.907 74.4923C234.968 72.7231 235.735 71.0718 236.207 69.5385C236.797 67.8872 237.209 66.5897 237.445 65.6462C237.563 65.0564 237.681 64.5256 237.799 64.0538C237.917 63.5821 237.976 63.1692 237.976 62.8154V61.7538C239.627 62.6974 240.748 63.8179 241.338 65.1154C241.692 65.7051 241.927 66.2949 242.045 66.8846C242.045 67.3564 241.986 67.6513 241.868 67.7692V67.9462ZM212.676 60.1615C212.204 61.341 211.792 62.4615 211.438 63.5231C211.084 64.5846 210.73 65.5872 210.376 66.5308C212.263 65.3513 214.504 63.8769 217.099 62.1077C219.812 60.2205 222.23 58.2744 224.353 56.2692C226.476 54.2641 227.951 52.2 228.776 50.0769C229.602 47.9538 229.248 46.0667 227.715 44.4154V44.2385C226.771 44.3564 225.886 44.5333 225.061 44.7692C224.235 45.0051 223.351 45.4769 222.407 46.1846C220.52 47.4821 218.751 49.3692 217.099 51.8462C215.448 54.3231 213.974 57.0949 212.676 60.1615ZM276.915 40.8769C277.033 40.9949 277.21 41.2308 277.446 41.5846C277.8 41.9385 277.859 42.5282 277.623 43.3538C277.505 43.3538 277.446 43.4128 277.446 43.5308V43.7077C276.266 46.7744 275.264 49.7231 274.438 52.5538C273.73 55.3846 273.082 57.9795 272.492 60.3385C272.374 60.9282 272.079 61.341 271.607 61.5769C271.372 61.6949 271.195 61.6949 271.077 61.5769C268.364 61.1051 266.241 60.5744 264.707 59.9846C263.292 59.2769 262.172 58.6872 261.346 58.2154C260.756 57.9795 260.461 57.5077 260.461 56.8V55.7385L262.054 49.9C259.459 52.9667 257.159 56.5051 255.154 60.5154C253.148 64.5256 251.438 68.4179 250.023 72.1923C248.607 75.9667 247.487 79.3282 246.661 82.2769C245.954 85.2256 245.482 87.1718 245.246 88.1154V88.6462C245.246 88.8821 245.187 89.059 245.069 89.1769C244.833 89.4128 244.597 89.5308 244.361 89.5308C243.536 89.2949 242.297 89.059 240.646 88.8231C239.113 88.4692 237.402 87.8205 235.515 86.8769C235.161 86.759 234.984 86.5231 234.984 86.1692V85.8154C234.748 83.2205 234.807 80.0949 235.161 76.4385C235.397 72.7821 235.869 68.9487 236.577 64.9385C237.284 60.8103 238.11 56.6231 239.054 52.3769C239.997 48.0128 240.941 43.8846 241.884 39.9923C242.002 39.4026 241.943 38.9897 241.707 38.7538C241.589 38.5179 241.589 38.1051 241.707 37.5154C241.825 37.1615 242.179 36.9846 242.769 36.9846H242.946H243.477H243.654C243.772 37.1026 243.889 37.1615 244.007 37.1615H244.184C245.246 37.5154 246.661 38.1051 248.43 38.9308C250.318 39.6385 251.969 40.641 253.384 41.9385L253.561 42.1154C253.679 42.1154 253.856 42.2923 254.092 42.6462C254.328 42.8821 254.387 43.2949 254.269 43.8846C254.269 44.1205 254.21 44.2974 254.092 44.4154V44.7692C253.856 45.4769 253.738 45.8897 253.738 46.0077C253.148 48.3667 252.5 50.7846 251.792 53.2615C251.084 55.7385 250.436 58.2744 249.846 60.8692C252.559 55.3256 255.33 50.6667 258.161 46.8923C260.992 43 263.233 40.1103 264.884 38.2231C265.002 38.2231 265.061 38.1641 265.061 38.0462C265.415 37.9282 265.769 37.5744 266.123 36.9846C266.595 36.5128 267.184 36.2769 267.892 36.2769C268.246 36.2769 268.541 36.3359 268.777 36.4538C269.956 36.9256 271.254 37.5154 272.669 38.2231C274.202 38.9308 275.559 39.8154 276.738 40.8769H276.915ZM393.332 24.7769C393.803 27.0179 394.098 30.2615 394.216 34.5077C394.334 38.6359 393.98 43 393.155 47.6C391.857 55.8564 390.029 62.7564 387.67 68.3C385.429 73.8436 382.952 78.3256 380.239 81.7462C378.352 84.2231 376.465 86.2872 374.578 87.9385C372.808 89.4718 371.098 90.7103 369.447 91.6538C376.878 90.8282 382.303 91.4769 385.724 93.6C389.262 95.7231 391.032 98.4949 391.032 101.915C391.032 103.449 390.737 104.687 390.147 105.631C389.675 106.692 389.026 107.577 388.201 108.285C387.493 108.992 386.785 109.523 386.078 109.877C385.37 110.231 384.839 110.467 384.485 110.585H384.308H384.132C383.778 110.703 383.424 110.703 383.07 110.585C382.716 110.585 382.48 110.467 382.362 110.231C382.244 110.113 382.303 109.818 382.539 109.346C382.657 109.228 382.716 109.051 382.716 108.815C382.952 108.579 383.07 108.344 383.07 108.108V107.754C381.655 105.277 380.003 103.449 378.116 102.269C376.229 101.09 373.929 100.323 371.216 99.9692C368.503 99.6154 365.26 99.4974 361.485 99.6154C357.711 99.8513 353.229 100.146 348.039 100.5C343.911 100.736 340.491 100.677 337.778 100.323C335.065 100.087 332.883 99.6744 331.232 99.0846C329.226 98.4949 327.634 97.7872 326.455 96.9615C325.157 96.1359 324.332 95.0744 323.978 93.7769C323.742 92.5974 323.683 91.4179 323.801 90.2385C324.037 89.1769 324.332 88.2333 324.685 87.4077C325.039 86.5821 325.275 86.1103 325.393 85.9923C325.393 85.8744 325.511 85.8154 325.747 85.8154C325.983 85.8154 326.278 85.9333 326.632 86.1692C327.103 86.4051 327.221 86.8179 326.985 87.4077C326.867 87.8795 326.808 88.4103 326.808 89C326.926 89.4718 327.162 89.8846 327.516 90.2385C329.521 92.2436 332.234 93.4821 335.655 93.9538C339.075 94.5436 342.791 94.7205 346.801 94.4846C346.211 94.4846 345.68 94.3667 345.208 94.1308C344.973 94.0128 344.796 93.9538 344.678 93.9538C340.549 92.7744 336.834 90.7692 333.532 87.9385C330.347 85.1077 327.811 81.6872 325.924 77.6769C324.037 73.5487 322.916 68.9487 322.562 63.8769C322.326 58.8051 323.093 53.3795 324.862 47.6C325.57 45.1231 326.396 42.8821 327.339 40.8769C328.283 38.7538 329.285 36.8667 330.347 35.2154C331.998 32.7385 333.649 30.6744 335.301 29.0231C337.07 27.2538 338.662 25.8974 340.078 24.9538C341.729 23.7744 343.38 22.8308 345.032 22.1231C345.621 21.8872 346.329 21.6513 347.155 21.4154C348.334 21.0615 350.044 20.8846 352.285 20.8846C353.701 20.8846 355.116 21.1795 356.532 21.7692C358.065 22.359 359.48 23.3615 360.778 24.7769C362.075 26.0744 363.196 27.9026 364.139 30.2615C365.083 32.6205 365.673 35.6282 365.908 39.2846V40.1692C365.908 40.641 365.732 41.0538 365.378 41.4077C363.726 43.4128 362.134 44.8282 360.601 45.6538C359.185 46.4795 357.888 47.0103 356.708 47.2462C355.411 47.4821 354.114 47.4231 352.816 47.0692L352.462 46.7154C352.226 46.4795 352.167 46.1846 352.285 45.8308C352.403 45.4769 352.58 45.3 352.816 45.3C353.17 45.1821 353.465 44.6513 353.701 43.7077C354.644 40.1692 355.057 36.7487 354.939 33.4462C354.939 30.0256 353.76 27.7846 351.401 26.7231H351.047C348.57 25.8974 346.034 27.6077 343.439 31.8538H343.262C343.026 32.4436 342.732 33.0333 342.378 33.6231C342.024 34.0949 341.729 34.6256 341.493 35.2154C340.903 36.5128 340.196 38.1641 339.37 40.1692C338.544 42.0564 337.778 44.3564 337.07 47.0692C336.716 48.3667 336.303 49.7821 335.832 51.3154C335.478 52.7308 335.183 54.2641 334.947 55.9154C334.475 58.6282 334.18 61.5179 334.062 64.5846C334.062 67.5333 334.416 70.541 335.124 73.6077C335.714 76.9103 337.011 79.8 339.016 82.2769C341.021 84.7538 344.088 86.4641 348.216 87.4077C351.637 88.1154 354.88 87.8795 357.947 86.7C358.655 86.4641 359.303 86.1692 359.893 85.8154C360.601 85.3436 361.249 84.9308 361.839 84.5769C364.316 82.9256 366.439 81.0385 368.208 78.9154C370.096 76.6744 371.747 74.3154 373.162 71.8385C374.578 69.3615 375.757 66.8846 376.701 64.4077C377.762 61.8128 378.588 59.3949 379.178 57.1538C379.296 56.5641 379.414 56.0923 379.532 55.7385C379.649 55.2667 379.767 54.7949 379.885 54.3231C380.475 51.6103 380.888 49.3692 381.124 47.6C381.36 45.8308 381.478 44.8872 381.478 44.7692V45.1231C381.596 44.2974 381.655 43.5308 381.655 42.8231C381.773 41.9974 381.891 41.1128 382.008 40.1692C382.362 34.8615 382.008 30.2026 380.947 26.1923C379.885 22.182 378.529 18.9385 376.878 16.4615C375.226 13.8667 373.457 11.9795 371.57 10.8C369.683 9.62051 368.032 9.20769 366.616 9.56154C364.611 10.1513 363.078 11.1538 362.016 12.5692C360.955 13.9846 360.247 15.282 359.893 16.4615C359.775 16.6974 359.657 16.8744 359.539 16.9923C359.185 17.3462 358.949 17.4641 358.832 17.3462C358.478 17.2282 358.065 16.9923 357.593 16.6385C357.121 16.2846 356.944 15.8718 357.062 15.4C357.062 14.6923 357.121 13.8077 357.239 12.7462C357.475 11.6846 357.711 10.6231 357.947 9.56154C358.301 8.5 358.714 7.49743 359.185 6.55385C359.775 5.61026 360.542 4.90256 361.485 4.43077C362.665 3.84102 364.08 3.31026 365.732 2.83846C367.383 2.36667 369.093 2.01282 370.862 1.77692C372.749 1.54103 374.578 1.42308 376.347 1.42308C378.234 1.42308 379.944 1.48205 381.478 1.6C383.011 1.8359 384.426 2.77949 385.724 4.43077C387.021 6.08205 388.142 8.08718 389.085 10.4462C390.147 12.6872 391.032 15.1051 391.739 17.7C392.447 20.2949 392.978 22.6538 393.332 24.7769ZM441.617 61.7538C443.268 62.6974 444.389 63.8179 444.979 65.1154C445.332 65.7051 445.568 66.2949 445.686 66.8846C444.979 71.2487 443.799 74.9051 442.148 77.8538C440.614 80.6846 439.022 82.9256 437.371 84.5769C435.366 86.5821 433.302 88.1154 431.179 89.1769C427.286 88.2333 423.984 86.9949 421.271 85.4615C418.676 83.8103 417.202 81.8641 416.848 79.6231C416.73 79.1513 416.671 78.3846 416.671 77.3231C415.373 80.0359 414.194 82.2179 413.132 83.8692C412.071 85.5205 411.127 86.759 410.302 87.5846C409.358 88.6462 408.473 89.2949 407.648 89.5308C405.407 88.941 403.579 88.1744 402.163 87.2308C400.748 86.2872 399.568 85.2846 398.625 84.2231C397.563 83.0436 396.738 81.7462 396.148 80.3308C395.322 74.6692 395.086 69.4795 395.44 64.7615C395.794 59.9256 396.384 55.6795 397.209 52.0231C398.153 48.2487 399.155 45.0641 400.217 42.4692C401.279 39.8744 402.104 38.0462 402.694 36.9846C402.812 36.7487 402.989 36.5128 403.225 36.2769C403.814 35.6872 404.404 35.2744 404.994 35.0385C406.409 34.5667 407.766 34.5077 409.063 34.8615C410.479 35.2154 411.717 35.6872 412.779 36.2769C414.076 36.8667 415.079 37.5744 415.786 38.4C416.494 39.2256 417.084 39.9333 417.555 40.5231C417.791 40.9949 417.673 41.3487 417.202 41.5846C416.966 41.7026 416.73 41.7026 416.494 41.5846C416.14 41.5846 415.845 41.7026 415.609 41.9385L415.432 42.1154C412.838 45.8897 410.95 50.0769 409.771 54.6769C408.709 59.2769 407.943 63.641 407.471 67.7692C406.999 72.4872 406.881 77.3231 407.117 82.2769C408.414 81.8051 409.771 80.1538 411.186 77.3231C412.72 74.3744 414.135 71.0718 415.432 67.4154C416.73 63.759 417.909 60.1026 418.971 56.4462C420.032 52.6718 420.858 49.6641 421.448 47.4231C421.802 46.0077 422.097 44.7103 422.332 43.5308C422.686 42.3513 422.981 41.2897 423.217 40.3462V40.1692C423.335 39.9333 423.394 39.6385 423.394 39.2846C423.512 38.8128 423.689 38.341 423.925 37.8692C423.925 37.7513 424.043 37.5744 424.279 37.3385C424.397 36.9846 424.809 36.8077 425.517 36.8077C426.579 37.1615 427.994 37.7513 429.763 38.5769C431.65 39.2846 433.302 40.2872 434.717 41.5846H434.894C435.012 41.7026 435.189 41.9974 435.425 42.4692C435.779 42.8231 435.838 43.3538 435.602 44.0615C435.484 44.1795 435.425 44.2974 435.425 44.4154C433.773 49.959 432.476 55.1487 431.532 59.9846C430.707 64.8205 430.058 69.0667 429.586 72.7231C429.114 76.9692 428.761 80.9205 428.525 84.5769C431.591 83.2795 433.95 81.3333 435.602 78.7385C437.371 76.1436 438.727 73.6077 439.671 71.1308C440.732 68.1821 441.381 65.0564 441.617 61.7538ZM483.885 67.9462C482.234 73.9615 479.816 78.4436 476.631 81.3923C473.565 84.341 470.38 86.4051 467.077 87.5846C464.247 88.5282 461.534 89 458.939 89C456.462 89 454.575 88.8821 453.277 88.6462C450.093 88.0564 447.557 86.9949 445.67 85.4615C443.782 83.8103 442.367 81.9231 441.424 79.8C440.598 77.6769 440.126 75.4949 440.008 73.2538C439.772 70.8949 439.772 68.6538 440.008 66.5308C440.244 64.0538 440.657 61.8128 441.247 59.8077C441.836 57.6846 442.426 55.9744 443.016 54.6769C444.077 52.2 445.257 49.9 446.554 47.7769C447.852 45.5359 449.267 43.5897 450.8 41.9385C452.334 40.2872 453.867 38.9897 455.4 38.0462C457.052 37.1026 458.762 36.6897 460.531 36.8077C462.065 37.0436 463.598 37.3974 465.131 37.8692C466.429 38.341 467.844 38.9897 469.377 39.8154C470.911 40.641 472.326 41.8205 473.624 43.3538C473.741 43.4718 474.036 43.8846 474.508 44.5923C475.098 45.3 475.511 46.3026 475.747 47.6C475.982 48.8974 475.865 50.4308 475.393 52.2C475.039 53.9692 473.977 55.9154 472.208 58.0385C470.557 60.1615 468.021 62.5205 464.6 65.1154C461.298 67.5923 456.816 70.1872 451.154 72.9C450.918 74.6692 450.8 76.2026 450.8 77.5C450.918 78.7974 451.095 79.9179 451.331 80.8615C451.567 81.9231 451.803 82.7487 452.039 83.3385C452.511 84.0462 453.336 84.5769 454.516 84.9308C455.695 85.1667 456.993 85.2256 458.408 85.1077C459.824 84.9897 461.18 84.8128 462.477 84.5769C463.893 84.2231 465.072 83.8692 466.016 83.5154C468.375 82.5718 470.321 81.2744 471.854 79.6231C473.506 77.9718 474.862 76.2615 475.924 74.4923C476.985 72.7231 477.752 71.0718 478.224 69.5385C478.813 67.8872 479.226 66.5897 479.462 65.6462C479.58 65.0564 479.698 64.5256 479.816 64.0538C479.934 63.5821 479.993 63.1692 479.993 62.8154V61.7538C481.644 62.6974 482.765 63.8179 483.354 65.1154C483.708 65.7051 483.944 66.2949 484.062 66.8846C484.062 67.3564 484.003 67.6513 483.885 67.7692V67.9462ZM454.693 60.1615C454.221 61.341 453.808 62.4615 453.454 63.5231C453.1 64.5846 452.747 65.5872 452.393 66.5308C454.28 65.3513 456.521 63.8769 459.116 62.1077C461.829 60.2205 464.247 58.2744 466.37 56.2692C468.493 54.2641 469.967 52.2 470.793 50.0769C471.618 47.9538 471.265 46.0667 469.731 44.4154V44.2385C468.788 44.3564 467.903 44.5333 467.077 44.7692C466.252 45.0051 465.367 45.4769 464.424 46.1846C462.536 47.4821 460.767 49.3692 459.116 51.8462C457.465 54.3231 455.99 57.0949 454.693 60.1615ZM522.293 67.9462C520.642 73.9615 518.224 78.4436 515.039 81.3923C511.973 84.341 508.788 86.4051 505.486 87.5846C502.655 88.5282 499.942 89 497.347 89C494.87 89 492.983 88.8821 491.686 88.6462C488.501 88.0564 485.965 86.9949 484.078 85.4615C482.191 83.8103 480.775 81.9231 479.832 79.8C479.006 77.6769 478.534 75.4949 478.416 73.2538C478.18 70.8949 478.18 68.6538 478.416 66.5308C478.652 64.0538 479.065 61.8128 479.655 59.8077C480.245 57.6846 480.834 55.9744 481.424 54.6769C482.486 52.2 483.665 49.9 484.962 47.7769C486.26 45.5359 487.675 43.5897 489.209 41.9385C490.742 40.2872 492.275 38.9897 493.809 38.0462C495.46 37.1026 497.17 36.6897 498.939 36.8077C500.473 37.0436 502.006 37.3974 503.539 37.8692C504.837 38.341 506.252 38.9897 507.786 39.8154C509.319 40.641 510.734 41.8205 512.032 43.3538C512.15 43.4718 512.445 43.8846 512.916 44.5923C513.506 45.3 513.919 46.3026 514.155 47.6C514.391 48.8974 514.273 50.4308 513.801 52.2C513.447 53.9692 512.386 55.9154 510.616 58.0385C508.965 60.1615 506.429 62.5205 503.009 65.1154C499.706 67.5923 495.224 70.1872 489.562 72.9C489.327 74.6692 489.209 76.2026 489.209 77.5C489.327 78.7974 489.504 79.9179 489.739 80.8615C489.975 81.9231 490.211 82.7487 490.447 83.3385C490.919 84.0462 491.745 84.5769 492.924 84.9308C494.104 85.1667 495.401 85.2256 496.816 85.1077C498.232 84.9897 499.588 84.8128 500.886 84.5769C502.301 84.2231 503.48 83.8692 504.424 83.5154C506.783 82.5718 508.729 81.2744 510.262 79.6231C511.914 77.9718 513.27 76.2615 514.332 74.4923C515.393 72.7231 516.16 71.0718 516.632 69.5385C517.221 67.8872 517.634 66.5897 517.87 65.6462C517.988 65.0564 518.106 64.5256 518.224 64.0538C518.342 63.5821 518.401 63.1692 518.401 62.8154V61.7538C520.052 62.6974 521.173 63.8179 521.762 65.1154C522.116 65.7051 522.352 66.2949 522.47 66.8846C522.47 67.3564 522.411 67.6513 522.293 67.7692V67.9462ZM493.101 60.1615C492.629 61.341 492.216 62.4615 491.862 63.5231C491.509 64.5846 491.155 65.5872 490.801 66.5308C492.688 65.3513 494.929 63.8769 497.524 62.1077C500.237 60.2205 502.655 58.2744 504.778 56.2692C506.901 54.2641 508.375 52.2 509.201 50.0769C510.027 47.9538 509.673 46.0667 508.139 44.4154V44.2385C507.196 44.3564 506.311 44.5333 505.486 44.7692C504.66 45.0051 503.775 45.4769 502.832 46.1846C500.945 47.4821 499.175 49.3692 497.524 51.8462C495.873 54.3231 494.398 57.0949 493.101 60.1615ZM550.617 84.0462C553.684 82.7487 556.101 80.8026 557.871 78.2077C559.64 75.6128 560.996 73.0179 561.94 70.4231C563.001 67.3564 563.65 64.2308 563.886 61.0462C564.83 61.6359 565.537 62.2256 566.009 62.8154C566.599 63.4051 567.012 63.9949 567.248 64.5846C567.601 65.1744 567.837 65.7641 567.955 66.3538C567.248 70.7179 566.068 74.3154 564.417 77.1462C562.884 79.9769 561.291 82.2179 559.64 83.8692C557.635 85.8744 555.571 87.4077 553.448 88.4692C549.437 87.5256 546.135 86.2872 543.54 84.7538C540.945 83.2205 539.412 81.2744 538.94 78.9154C538.232 75.141 538.291 70.6 539.117 65.2923C540.06 59.8667 541.181 54.7359 542.478 49.9C539.766 53.2026 537.348 57.0359 535.225 61.4C533.219 65.6462 531.509 69.7744 530.094 73.7846C528.678 77.6769 527.617 81.0385 526.909 83.8692C526.201 86.7 525.789 88.2923 525.671 88.6462C525.671 89.2359 525.376 89.5308 524.786 89.5308C523.96 89.2949 522.722 89.059 521.071 88.8231C519.537 88.4692 517.827 87.8205 515.94 86.8769C515.586 86.759 515.409 86.5231 515.409 86.1692V85.8154C515.173 83.2205 515.232 80.0949 515.586 76.4385C515.822 72.7821 516.294 68.9487 517.001 64.9385C517.709 60.8103 518.535 56.6231 519.478 52.3769C520.422 48.0128 521.366 43.8846 522.309 39.9923C522.427 39.4026 522.368 38.9897 522.132 38.7538C522.014 38.5179 522.014 38.1051 522.132 37.5154C522.25 37.1615 522.604 36.9846 523.194 36.9846H523.371H523.901H524.078C524.196 37.1026 524.314 37.1615 524.432 37.1615H524.609C525.671 37.5154 527.086 38.1051 528.855 38.9308C530.742 39.6385 532.394 40.641 533.809 41.9385L533.986 42.1154C534.104 42.1154 534.281 42.2923 534.517 42.6462C534.753 42.8821 534.812 43.2949 534.694 43.8846C534.694 44.1205 534.635 44.2974 534.517 44.4154V44.7692C534.281 45.4769 534.163 45.8897 534.163 46.0077C533.455 48.3667 532.748 50.8436 532.04 53.4385C531.45 56.0333 530.86 58.6282 530.271 61.2231C532.984 55.5615 535.755 50.7846 538.586 46.8923C541.535 43 543.835 40.1103 545.486 38.2231L545.663 38.0462L546.725 36.9846C547.196 36.5128 547.727 36.2769 548.317 36.2769C548.671 36.2769 549.025 36.3359 549.378 36.4538C550.558 36.9256 551.855 37.5154 553.271 38.2231C554.804 38.9308 556.16 39.8154 557.34 40.8769C557.576 40.9949 557.812 41.2308 558.048 41.5846C558.284 41.9385 558.284 42.5282 558.048 43.3538V43.5308V43.7077C555.689 49.959 553.978 55.6205 552.917 60.6923C551.855 65.6462 551.148 69.8333 550.794 73.2538C550.322 77.3821 550.263 80.9795 550.617 84.0462Z" fill="#F1C010"/>
</svg>
