<svg width="90" height="80" viewBox="0 0 90 80" fill="none" xmlns="http://www.w3.org/2000/svg">
<path d="M40.7812 42.5C40.4082 42.5 40.0506 42.3683 39.7868 42.1339C39.5231 41.8995 39.375 41.5815 39.375 41.25C39.375 40.9185 39.5231 40.6005 39.7868 40.3661C40.0506 40.1317 40.4082 40 40.7812 40H42.1875V37.5H22.5V40H35.1562C35.5292 40 35.8869 40.1317 36.1506 40.3661C36.4143 40.6005 36.5625 40.9185 36.5625 41.25C36.5625 41.5815 36.4143 41.8995 36.1506 42.1339C35.8869 42.3683 35.5292 42.5 35.1562 42.5H21.9628L20.5565 45H44.1309L42.7246 42.5H40.7812Z" fill="#422112"/>
<path d="M42.1876 57.5C42.1876 63.0578 40.4488 66.6094 38.3647 70H45.0001V47.5H39.7283C41.0565 50.6512 42.1876 53.987 42.1876 57.5Z" fill="#422112"/>
<path d="M70.3125 22.8261C70.3139 22.0565 70.0475 21.3054 69.55 20.6756L61.1429 10H54.1696L45.7625 20.6756C45.265 21.3054 44.9987 22.0565 45 22.8261V25H70.3125V22.8261Z" fill="#422112"/>
<path d="M70.3125 42.5V27.5H45V36.25V40.9548L45.8691 42.5H70.3125Z" fill="#422112"/>
<path d="M63.2812 6.25C63.2808 5.91859 63.1325 5.60087 62.8689 5.36653C62.6053 5.13219 62.2478 5.00037 61.875 5H53.4375C53.0647 5.00037 52.7072 5.13219 52.4436 5.36653C52.18 5.60087 52.0317 5.91859 52.0312 6.25V7.5H63.2812V6.25Z" fill="#422112"/>
<path d="M68.9204 52.3233L70.0973 45H47.2752L47.6639 45.6909C47.7616 45.8645 47.8125 46.0559 47.8124 46.25V71.25C47.8125 71.4441 47.7616 71.6355 47.6639 71.8091L46.1439 74.5122C46.5626 74.787 47.0589 74.953 47.5776 74.9919C48.0962 75.0307 48.6167 74.9409 49.0813 74.7323C49.5458 74.5237 49.9361 74.2045 50.2087 73.8104C50.4812 73.4163 50.6253 72.9626 50.6249 72.5C50.6249 72.1685 50.7731 71.8505 51.0368 71.6161C51.3005 71.3817 51.6582 71.25 52.0312 71.25C52.4041 71.25 52.7618 71.3817 53.0256 71.6161C53.2893 71.8505 53.4374 72.1685 53.4374 72.5C53.4374 73.8552 55.3694 75 57.6562 75C59.9429 75 61.8749 73.8552 61.8749 72.5C61.8749 72.1685 62.0231 71.8505 62.2868 71.6161C62.5505 71.3817 62.9082 71.25 63.2812 71.25C63.6542 71.25 64.0118 71.3817 64.2756 71.6161C64.5393 71.8505 64.6874 72.1685 64.6874 72.5C64.6822 73.163 64.9735 73.8008 65.4972 74.2729C66.021 74.7451 66.7342 75.0129 67.4802 75.0176C68.2261 75.0222 68.9435 74.7633 69.4747 74.2978C70.0058 73.8322 70.3072 73.1982 70.3124 72.5352L68.909 52.5781C68.9029 52.4931 68.9067 52.4076 68.9204 52.3233Z" fill="#422112"/>
<path d="M21.9628 75H42.7246L44.1309 72.5H20.5565L21.9628 75Z" fill="#422112"/>
<path d="M35.145 70C37.4502 66.375 39.3751 63.0938 39.3751 57.5C39.3751 54.0689 38.1095 50.692 36.7189 47.5H34.1033C35.4315 50.6512 36.5626 53.987 36.5626 57.5C36.5626 63.0578 34.8238 66.6094 32.7397 70H35.145Z" fill="#422112"/>
<path d="M33.75 57.5C33.75 54.0689 32.4844 50.692 31.0938 47.5H19.6875V70H29.5198C31.825 66.375 33.75 63.0938 33.75 57.5Z" fill="#422112"/>
</svg>
