<svg width="70" height="60" viewBox="0 0 70 60" fill="none" xmlns="http://www.w3.org/2000/svg">
<g clip-path="url(#clip0)">
<path d="M58.3335 43.125H49.0876C47.4776 43.125 46.171 42.005 46.171 40.625C46.171 39.245 47.4776 38.125 49.0876 38.125H58.3335C59.9085 38.125 61.3639 37.61 62.4372 36.6725C63.566 35.7225 64.1668 34.475 64.1668 33.125C64.1668 30.3675 61.5505 28.125 58.3335 28.125H52.5001C50.8901 28.125 49.5835 27.005 49.5835 25.625C49.5835 24.245 50.8901 23.125 52.5001 23.125H58.3335C64.7676 23.125 70.0001 27.61 70.0001 33.125C70.0001 35.8275 68.778 38.34 66.5614 40.21C64.4176 42.0775 61.4864 43.125 58.3335 43.125Z" fill="#FFB300"/>
<path d="M70.0001 33.125H64.1668C64.1668 34.475 63.566 35.7225 62.4372 36.6725C61.3639 37.61 59.9085 38.125 58.3335 38.125H49.0876C47.4776 38.125 46.171 39.245 46.171 40.625C46.171 42.005 47.4776 43.125 49.0876 43.125H58.3335C61.4864 43.125 64.4176 42.0775 66.5614 40.21C68.778 38.34 70.0001 35.8275 70.0001 33.125Z" fill="#DE9C00"/>
<path d="M22.6247 14.9999C22.0122 14.9999 21.4055 14.7824 20.9709 14.3549C20.1805 13.5724 20.2768 12.3874 21.1897 11.7099C21.6797 11.3449 21.9189 10.8874 21.8664 10.4174C21.8139 9.90994 21.4143 9.43744 20.7814 9.12244C18.903 8.19244 17.7189 6.66744 17.5264 4.93744C17.3397 3.25494 18.1272 1.62244 19.6905 0.459937C20.6034 -0.222564 21.983 -0.140064 22.7793 0.644937C23.5697 1.42744 23.4734 2.61244 22.5605 3.28994C22.0705 3.65494 21.8314 4.11244 21.8839 4.58244C21.9393 5.08994 22.3359 5.56244 22.9718 5.87744C24.8472 6.80744 26.0314 8.33244 26.2239 10.0624C26.4105 11.7449 25.623 13.3774 24.0597 14.5424C23.6426 14.8474 23.1351 14.9999 22.6247 14.9999Z" fill="#795548"/>
<path d="M37.2079 15.0001C36.5954 15.0001 35.9888 14.7826 35.5542 14.3551C34.7638 13.5726 34.86 12.3876 35.7729 11.7101C36.2629 11.3451 36.5021 10.8876 36.4496 10.4176C36.3942 9.9101 35.9975 9.4376 35.3617 9.1226C33.4863 8.1926 32.3021 6.6676 32.1096 4.9376C31.9229 3.2551 32.7104 1.6226 34.2738 0.457599C35.1867 -0.222401 36.5663 -0.139901 37.3596 0.645099C38.15 1.4276 38.0538 2.6126 37.1408 3.2901C36.6508 3.6551 36.4117 4.1126 36.4642 4.5826C36.5196 5.0901 36.9163 5.5626 37.5521 5.8776C39.4275 6.8076 40.6117 8.3326 40.8042 10.0626C40.9908 11.7451 40.2033 13.3776 38.64 14.5426C38.2258 14.8476 37.7183 15.0001 37.2079 15.0001Z" fill="#795548"/>
<path d="M38.6459 10.5499C38.6459 11.4749 38.1792 12.3999 37.2167 13.1249L35.5542 14.3499C34.7667 13.5749 34.8542 12.3999 35.7875 11.6999C36.2542 11.3499 36.5167 10.8749 36.4584 10.4249C36.4 9.89987 35.9917 9.44987 35.35 9.12487C33.4834 8.19987 32.3167 6.67487 32.1125 4.94987C31.9084 3.24987 32.725 1.62487 34.2709 0.449873C35.175 -0.225127 36.575 -0.150128 37.3625 0.649872L35.7 1.87487C33.5125 3.49987 33.8917 6.22487 36.4584 7.49987C37.8875 8.22487 38.6459 9.37487 38.6459 10.5499Z" fill="#694A3F"/>
<path d="M29.1667 52.5C14.6942 52.5 2.91675 42.405 2.91675 30V20.625C2.91675 19.59 3.89675 18.75 5.10425 18.75H53.2292C54.4367 18.75 55.4167 19.59 55.4167 20.625V30C55.4167 34.08 54.1305 38.0875 51.6951 41.585L51.4909 41.8325C46.7426 48.42 38.2201 52.5 29.1667 52.5Z" fill="#FFC107"/>
<path d="M50.3125 60H8.02083C3.59625 60 0 56.9175 0 53.125V50.625C0 49.59 0.98 48.75 2.1875 48.75H56.1458C57.3533 48.75 58.3333 49.59 58.3333 50.625V53.125C58.3333 56.9175 54.7371 60 50.3125 60Z" fill="#FFE082"/>
<path d="M29.1668 18.75H5.10425C3.89675 18.75 2.91675 19.59 2.91675 20.625V30C2.91675 37.8175 7.59217 44.715 14.6709 48.75H29.1668V18.75Z" fill="#DEA806"/>
<path d="M29.1667 48.75H14.6708H2.1875C0.98 48.75 0 49.59 0 50.625V53.125C0 56.9175 3.59625 60 8.02083 60H29.1667V48.75Z" fill="#DEC371"/>
<path d="M24.0626 10.5499C24.0626 11.4749 23.5959 12.3999 22.6334 13.1249L20.9709 14.3499C20.1834 13.5749 20.2709 12.3999 21.2043 11.6999C21.6709 11.3499 21.9334 10.8749 21.8751 10.4249C21.8168 9.89987 21.4084 9.44987 20.7668 9.12487C18.9001 8.19987 17.7334 6.67487 17.5293 4.94987C17.3251 3.24987 18.1418 1.62487 19.6876 0.449873C20.5918 -0.225127 21.9918 -0.150128 22.7793 0.649872L21.1168 1.87487C18.9293 3.49987 19.3084 6.22487 21.8751 7.49987C23.3043 8.22487 24.0626 9.37487 24.0626 10.5499Z" fill="#694A3F"/>
</g>
<defs>
<clipPath id="clip0">
<rect width="70" height="60" fill="white"/>
</clipPath>
</defs>
</svg>
