<svg width="70" height="60" viewBox="0 0 70 60" fill="none" xmlns="http://www.w3.org/2000/svg">
<g clip-path="url(#clip0)">
<path d="M45.8622 48.4241C45.1956 48.4241 44.6553 47.9609 44.6553 47.3896C44.6564 47.2709 44.68 47.1532 44.7253 47.041L44.7337 47.0203C45.896 44.1413 49.0001 39.3103 56.688 39.3103C64.9468 39.3103 66.6558 32.4827 66.9141 31.1172C67.0225 30.5849 66.8496 30.0388 66.4422 29.6265C66.0317 29.2068 65.4253 28.9647 64.7863 28.9655H55.626C54.9594 28.9655 54.4191 28.5023 54.4191 27.931C54.4191 27.3596 54.9594 26.8965 55.626 26.8965H64.7863C66.1305 26.8952 67.407 27.4016 68.2759 28.2807C69.1447 29.1598 69.5176 30.3223 69.2953 31.4586C69.1046 32.4651 67.1229 41.3793 56.688 41.3793C50.8032 41.3793 48.1806 44.8117 47.016 47.6896C46.8619 48.1254 46.3935 48.4236 45.8622 48.4241Z" fill="#95A5A5"/>
<path d="M22.1224 42.1655L15.569 34.0345C13.3567 31.1712 12.1426 27.8267 12.069 24.3931V23.7931L33.7931 21.7241L57.931 23.7931V24.3931C57.8943 28.0241 56.4887 31.5477 53.9241 34.4379C51.6069 37.0758 48.8793 41.5241 47.4431 48.6207L37.4138 51.7241L22.1224 42.1655Z" fill="#E64C3C"/>
<path d="M61.5518 50.6379V50.7516C61.5534 51.3665 61.2293 51.9487 60.6707 52.3344L56.169 55.4172C55.7514 55.7046 55.2321 55.8615 54.6966 55.862H33.0811C33.419 55.6137 33.7448 55.3551 34.0707 55.0758C36.1914 53.3207 37.6787 51.0799 38.3552 48.6206H59.1983C59.8229 48.6195 60.4222 48.8317 60.8639 49.2102C61.3055 49.5888 61.5531 50.1025 61.5518 50.6379Z" fill="#C03A2B"/>
<path d="M38.3551 48.6206C37.6786 51.0799 36.1913 53.3207 34.0706 55.0757C33.7448 55.3551 33.4189 55.6137 33.081 55.862C28.1689 59.462 21.6999 60.0206 18.1758 57.0206C18.0968 56.9569 18.0242 56.8877 17.9585 56.8137C17.935 56.7957 17.9146 56.7747 17.8982 56.7516C17.6256 56.498 17.3793 56.2246 17.162 55.9344C20.143 53.5137 22.3879 55.3551 25.3689 52.8102C28.3982 50.224 26.1292 48.2792 29.1585 45.693C32.1275 43.1482 34.3844 44.9895 37.3534 42.5688H37.3654C37.5847 42.8703 37.7783 43.1849 37.9448 43.5102C38.692 45.1369 38.8353 46.9215 38.3551 48.6206Z" fill="#805333"/>
<path d="M37.3656 42.569H37.3535C34.3845 44.9897 32.1276 43.1483 29.1587 45.6931C26.1294 48.2793 28.3983 50.2242 25.369 52.8104C22.388 55.3552 20.1431 53.5138 17.1621 55.9345C16.9429 55.6295 16.7493 55.3114 16.5828 54.9828C14.9173 51.6207 16.3414 46.9242 20.4569 43.4276C20.977 42.9772 21.5336 42.559 22.1225 42.1759V42.1655C26.938 39 32.9725 38.6173 36.3518 41.4828C36.4539 41.5648 36.5468 41.6549 36.6294 41.7518C36.8991 42.0074 37.1453 42.2806 37.3656 42.569Z" fill="#A56A43"/>
<path d="M22.1224 42.1653V42.1757C21.5335 42.5588 20.977 42.977 20.4569 43.4274C15.9431 47.2653 14.6638 52.5516 17.1621 55.9343C17.3957 56.2477 17.6623 56.542 17.9586 56.8136C16.8955 57.5378 15.7009 58.1074 14.4224 58.4998C14.0306 58.6121 13.6317 58.7054 13.2276 58.7791C13.1069 54.6412 9.43793 54.5791 9.43793 50.3481C9.43793 46.0343 13.2276 46.0343 13.2276 41.7205C13.2276 37.4895 9.55862 37.4274 9.43793 33.2895C9.83212 33.2168 10.2311 33.165 10.6328 33.1343C10.8653 33.1137 11.099 33.1033 11.3328 33.1033C12.8131 33.1074 14.269 33.4274 15.569 34.0343C18.9996 35.8256 21.3817 38.7812 22.1224 42.1653Z" fill="#CB8252"/>
<path d="M9.43766 50.3482C9.43766 54.5792 13.1066 54.6413 13.2273 58.7792C12.833 58.8511 12.434 58.9029 12.0325 58.9344C5.44283 59.3792 -0.012343 53.4309 -0.000274059 46.0344C-0.012343 40.1275 3.48766 35.1309 8.24283 33.5999C8.6292 33.4654 9.02915 33.3615 9.43766 33.2896C9.55835 37.4275 13.2273 37.4896 13.2273 41.7206C13.2273 46.0344 9.43766 46.0344 9.43766 50.3482Z" fill="#CF976A"/>
<path d="M26.5518 14.4827C25.8853 14.4827 25.3449 14.0195 25.3449 13.4482C25.3673 12.3972 25.9577 11.4146 26.9428 10.7886C27.5234 10.3324 27.7587 10.1286 27.7587 9.65063C27.7587 9.1727 27.5173 8.97201 26.9428 8.5127C25.959 7.88796 25.3688 6.9075 25.3449 5.85822C25.3672 4.8075 25.9582 3.8254 26.944 3.20063C27.5234 2.74442 27.7587 2.54167 27.7587 2.06891C27.7587 1.49758 28.299 1.03442 28.9656 1.03442C29.6321 1.03442 30.1725 1.49758 30.1725 2.06891C30.1497 3.119 29.5593 4.10049 28.5746 4.72546C27.994 5.18166 27.7587 5.38442 27.7587 5.86339C27.7587 6.34235 28.0001 6.54201 28.5746 7.00132C29.5571 7.62561 30.1471 8.6046 30.1725 9.6527C30.1488 10.7029 29.5587 11.6844 28.5746 12.3103C28.0001 12.7696 27.7587 12.9734 27.7587 13.4482C27.7587 14.0195 27.2184 14.4827 26.5518 14.4827Z" fill="#805333"/>
<path d="M33.7931 14.4827C33.1265 14.4827 32.5862 14.0195 32.5862 13.4482C32.6086 12.3972 33.1989 11.4146 34.1841 10.7886C34.7646 10.3324 35 10.1286 35 9.65063C35 9.1727 34.7586 8.97201 34.1841 8.5127C33.2003 7.88796 32.6101 6.9075 32.5862 5.85822C32.6085 4.8075 33.1995 3.8254 34.1853 3.20063C34.7646 2.74442 35 2.54167 35 2.06891C35 1.49758 35.5403 1.03442 36.2069 1.03442C36.8734 1.03442 37.4138 1.49758 37.4138 2.06891C37.391 3.119 36.8006 4.10049 35.8158 4.72546C35.2353 5.18166 35 5.38442 35 5.86339C35 6.34235 35.2414 6.54201 35.8158 7.00132C36.7984 7.62561 37.3884 8.6046 37.4138 9.6527C37.3901 10.7029 36.7999 11.6844 35.8158 12.3103C35.2414 12.7696 35 12.9734 35 13.4482C35 14.0195 34.4596 14.4827 33.7931 14.4827Z" fill="#805333"/>
<path d="M41.0345 14.4827C40.368 14.4827 39.8276 14.0195 39.8276 13.4482C39.85 12.3972 40.4404 11.4146 41.4256 10.7886C42.0061 10.3324 42.2414 10.1286 42.2414 9.65063C42.2414 9.1727 42.0001 8.97201 41.4256 8.5127C40.4418 7.88796 39.8515 6.9075 39.8276 5.85822C39.85 4.8075 40.4409 3.8254 41.4268 3.20063C42.0061 2.74442 42.2414 2.54167 42.2414 2.06891C42.2414 1.49758 42.7818 1.03442 43.4483 1.03442C44.1149 1.03442 44.6552 1.49758 44.6552 2.06891C44.6324 3.119 44.0421 4.10049 43.0573 4.72546C42.4768 5.18166 42.2414 5.38442 42.2414 5.86339C42.2414 6.34235 42.4828 6.54201 43.0573 7.00132C44.0398 7.62561 44.6299 8.6046 44.6552 9.6527C44.6315 10.7029 44.0414 11.6844 43.0573 12.3103C42.4828 12.7696 42.2414 12.9734 42.2414 13.4482C42.2414 14.0195 41.7011 14.4827 41.0345 14.4827Z" fill="#805333"/>
<path d="M12.2862 54.0207C13.5677 55.2644 14.3206 56.8431 14.4224 58.5C14.0306 58.6123 13.6316 58.7056 13.2276 58.7794C12.8332 58.8513 12.4342 58.9031 12.0327 58.9345C12.0227 58.8937 12.0187 58.852 12.0207 58.8104C11.9873 57.4953 11.4 56.235 10.3672 55.2621C7.51871 52.4333 7.51871 48.2426 10.3672 45.4138C11.4471 44.4083 12.0385 43.0873 12.0207 41.7207C12.0444 40.3613 11.4566 39.0462 10.3793 38.0483C9.1068 36.8121 8.35464 35.2459 8.24308 33.6C8.62945 33.4655 9.0294 33.3616 9.43791 33.2897C9.8321 33.217 10.2311 33.1652 10.6327 33.1345C10.6427 33.1753 10.6468 33.217 10.6448 33.2587C10.6782 34.5737 11.2655 35.834 12.2983 36.8069C15.1468 39.6357 15.1468 43.8264 12.2983 46.6552C11.2184 47.6608 10.627 48.9817 10.6448 50.3483C10.6211 51.7078 11.2088 53.0229 12.2862 54.0207Z" fill="#805333"/>
<path d="M37.9449 43.5103C36.7014 44.448 35.1318 45.008 33.4794 45.1034C30.7755 45.2317 28.6148 47.0793 28.4587 49.3965C28.1641 52.6363 25.1549 55.2068 21.3742 55.4483C20.109 55.4958 18.9075 55.9371 17.9949 56.6896C17.9587 56.7103 17.9345 56.731 17.8983 56.7517C17.6257 56.4981 17.3794 56.2247 17.1621 55.9345C16.9429 55.6294 16.7493 55.3114 16.5828 54.9827C17.8277 54.055 19.3908 53.4995 21.0363 53.4C22.3493 53.354 23.5925 52.8805 24.5121 52.0758C25.4579 51.2951 26.0156 50.2315 26.069 49.1069C26.3639 45.8711 29.3659 43.3023 33.1414 43.0552C34.4046 43.009 35.6053 42.5716 36.5207 41.8241C36.5539 41.7968 36.5903 41.7726 36.6294 41.7517C36.8991 42.0073 37.1453 42.2806 37.3656 42.569C37.5848 42.8704 37.7784 43.185 37.9449 43.5103Z" fill="#603E26"/>
<path d="M57.931 19.6551V23.7931H12.069V19.6551C12.0729 18.5139 13.1513 17.5896 14.4828 17.5862H55.5172C56.8487 17.5896 57.9271 18.5139 57.931 19.6551Z" fill="#F9EAB0"/>
</g>
<defs>
<clipPath id="clip0">
<rect width="70" height="60" fill="white"/>
</clipPath>
</defs>
</svg>
