<svg width="70" height="60" viewBox="0 0 70 60" fill="none" xmlns="http://www.w3.org/2000/svg">
<path d="M52.8434 14.116L52.4271 19.4079L48.4183 21.3249C44.4641 23.1969 39.7105 23.359 35.5946 21.7633C31.4798 20.1624 26.7239 20.3256 22.7709 22.2017L17.965 24.4856L17.1679 14.2688L43.3269 14.1566L50.4644 14.126L52.8434 14.116Z" fill="#DAEFF6"/>
<path d="M52.4276 19.408L49.7867 53.3723L19.6188 45.725L17.9653 24.4858L22.7712 22.2018C26.7242 20.3257 31.4802 20.1625 35.5949 21.7634C39.7108 23.3592 44.4644 23.1971 48.4186 21.325L52.4276 19.408Z" fill="#62BEFF"/>
<path d="M50.4647 33.4893H69.4982C69.5136 48.1171 55.6918 59.9868 38.626 60C38.607 60 38.588 60 38.5689 60H22.8817L50.4647 33.4893Z" fill="#03AA6F"/>
<path d="M49.2748 33.6626H65.232V33.4893C65.232 46.1114 53.2945 56.3436 38.5685 56.3436L49.2748 33.6626Z" fill="#DD2E2B"/>
<path d="M17.1561 39.7091H14.7769C14.7769 35.8916 16.2829 32.1302 19.0155 29.1181L19.1607 28.958L21.0414 30.2071L20.8951 30.3682C18.4837 33.0263 17.1561 36.3433 17.1561 39.7091Z" fill="black"/>
<path d="M5.33524 30.5996C11.2058 30.5996 15.9642 34.6771 15.9666 39.7091C10.0948 39.7091 5.33524 35.6294 5.33524 30.5964V30.5996Z" fill="#03AA6F"/>
<path d="M14.7994 59.1435C12.444 60.2723 9.55093 60.1754 7.30505 58.8937C4.5179 57.301 2.51223 54.8834 1.67114 52.1038L0.938328 49.7016C-0.349973 45.4406 1.26427 40.9195 5.11495 38.0063L5.45989 37.7463C6.11655 37.2487 6.90528 36.8989 7.75813 36.7266H8.09241C10.1075 38.6303 12.9674 39.7142 15.9663 39.709V39.6867C16.4446 39.6867 16.9084 39.5418 17.2749 39.2788L19.5529 37.6474C21.568 36.2086 24.5075 36.2443 26.4738 37.732L26.8188 37.992C29.9057 40.327 31.5961 43.7326 31.419 47.2585L14.7994 59.1435Z" fill="#EF5122"/>
<path d="M49.2442 28.5755C50.285 28.9476 50.9619 29.8183 50.9619 30.785V35.0675C50.9715 40.3972 49.1144 45.6076 45.6314 50.0226C40.377 56.5973 31.4991 60.3445 22.2156 59.9061C17.7451 59.7287 13.3924 58.6264 9.52739 56.6932L9.36319 56.6106V52.8929L14.6319 52.5544C29.5743 51.5948 41.8473 42.0602 44.4264 29.4084C44.6191 28.3684 45.7587 27.6587 46.9721 27.8239C47.1421 27.8474 47.3076 27.8871 47.467 27.9432L49.2442 28.5755Z" fill="#FFDB6F"/>
<path d="M36.1897 25.3321H33.8105V7.99805C33.8105 7.6493 34.0175 7.32504 34.3613 7.13742L47.4468 0L48.7245 1.72113L36.1897 8.55785V25.3321Z" fill="#62BEFF"/>
<path d="M56.4099 36.5481H54.0307V38.5874H56.4099V36.5481Z" fill="black"/>
<path d="M52.8411 46.7446H50.4619V48.7839H52.8411V46.7446Z" fill="black"/>
<path d="M56.4099 42.666H54.0307V44.7053H56.4099V42.666Z" fill="black"/>
</svg>
