<svg width="50" height="50" viewBox="0 0 50 50" fill="none" xmlns="http://www.w3.org/2000/svg">
<path d="M50 29.3103H0V50H50V29.3103Z" fill="#E6CCAF"/>
<path d="M50 35.3447H0V37.0688H50V35.3447Z" fill="#F09E3E"/>
<path d="M50 42.2415H0V43.9656H50V42.2415Z" fill="#F0614A"/>
<path d="M0 29.3104L50 0V29.3104H0Z" fill="#F0DBC2"/>
<path d="M45.6896 7.75854H43.9655V9.48267H45.6896V7.75854Z" fill="#E6CCAF"/>
<path d="M39.6551 14.6553H37.931V16.3794H39.6551V14.6553Z" fill="#E6CCAF"/>
<path d="M29.3103 17.2415H27.5862V18.9656H29.3103V17.2415Z" fill="#E6CCAF"/>
<path d="M47.4137 21.5518H45.6896V23.2759H47.4137V21.5518Z" fill="#E6CCAF"/>
<path d="M31.0345 25H29.3104V26.7241H31.0345V25Z" fill="#E6CCAF"/>
<path d="M18.9655 24.1379H17.2414V25.8621H18.9655V24.1379Z" fill="#E6CCAF"/>
</svg>
