<svg width="70" height="70" viewBox="0 0 70 70" fill="none" xmlns="http://www.w3.org/2000/svg">
<path d="M46.1296 36.1717C47.1548 35.1466 47.7404 33.8286 47.7404 32.3642V24.8956C47.7404 21.2345 46.1296 17.8663 43.64 15.5232C42.7613 14.791 42.0291 13.7659 41.4433 12.8872H28.5564C27.9706 13.9124 27.2384 14.791 26.3597 15.5232C23.8702 17.8663 22.2593 21.088 22.2593 24.8956V33.2429C22.2593 34.4144 22.9914 35.293 23.8701 36.0254C24.4559 36.6112 24.4559 38.6613 23.8701 39.2472C22.9914 39.9793 22.2593 40.858 22.2593 42.0296V65.8997C22.2593 66.7783 22.6986 67.5105 23.2844 68.0963C24.1631 69.2678 25.4811 70.0001 27.0919 70.0001C28.2634 70.0001 29.4351 69.5608 30.1672 68.8286H31.7781C32.6567 69.5608 33.6819 70.0001 34.8534 70.0001C36.0249 70.0001 37.1965 69.5608 37.9287 68.8286H39.5396C40.4183 69.5608 41.4435 70.0001 42.615 70.0001C44.2258 70.0001 45.5438 69.268 46.4224 68.0963C47.0083 67.5105 47.4476 66.7783 47.4476 65.8997V42.3223C47.4476 41.5902 47.0083 40.7115 46.5689 40.1257L46.1296 39.5399C45.2509 38.6612 45.2509 37.0504 46.1296 36.1717Z" fill="#84DBFF"/>
<path d="M29.8746 7.4685L30.021 8.34716C30.021 10.6903 29.1424 12.887 27.5316 14.7906H42.7616C41.2971 13.0333 40.2721 10.8367 40.2721 8.34716V7.4685H40.4186C40.7115 7.4685 41.0044 7.17566 41.0044 6.88269C41.0044 6.58984 40.7116 6.29687 40.4186 6.29687H40.2721V4.68604H29.8746V6.00403H29.7281C29.4352 6.00403 29.1423 6.29687 29.1423 6.58984C29.1424 7.17566 29.4352 7.4685 29.8746 7.4685Z" fill="#F2F2F2"/>
<path d="M39.2468 0H31.046C30.3139 0 29.5815 0.585819 29.5815 1.46448V4.83263H40.7113V1.46448C40.7112 0.585819 39.979 0 39.2468 0Z" fill="#40596B"/>
<path d="M47.7406 44.665H22.4059V59.8951H47.7406V44.665Z" fill="#54C0EB"/>
<path d="M47.7406 44.665H22.4059V59.8951H47.7406V44.665Z" fill="#54C0EB"/>
<path d="M38.9538 54.1839C38.9538 56.2341 37.1965 57.9914 35.1463 57.9914C33.0961 57.9914 31.3388 56.2341 31.3388 54.1839C31.3388 52.1338 35.1463 46.7153 35.1463 46.7153C35.1463 46.7153 38.9538 51.9873 38.9538 54.1839Z" fill="white"/>
<path opacity="0.1" d="M36.025 56.9663C33.9748 56.9663 32.2175 55.209 32.2175 53.1588C32.2175 51.6943 34.1213 48.4727 35.2928 46.7153C35.1463 46.7153 35.1463 46.5688 35.1463 46.5688C35.1463 46.5688 31.3388 51.9873 31.3388 54.0375C31.3388 56.0876 33.0961 57.8449 35.1463 57.8449C36.4643 57.8449 37.4894 57.2591 38.2216 56.2341C37.6358 56.8199 36.9036 56.9663 36.025 56.9663Z" fill="#231F20"/>
</svg>
