<svg width="50" height="50" viewBox="0 0 50 50" fill="none" xmlns="http://www.w3.org/2000/svg">
<path d="M41.8293 13.2104L40.7388 9.94219C40.5193 9.28437 39.9037 8.84082 39.2102 8.84082H10.7899C10.0964 8.84082 9.48081 9.28447 9.26128 9.94219L8.17075 13.2104C7.92368 13.9508 8.47475 14.7156 9.25532 14.7156H40.7447C41.5253 14.7156 42.0764 13.9508 41.8293 13.2104Z" fill="white"/>
<path d="M13.2437 48.0241C13.3687 49.149 14.3194 50 15.4513 50H34.369C35.5009 50 36.4517 49.1489 36.5767 48.0241L39.9521 17.6455H9.86816L13.2437 48.0241Z" fill="white"/>
<path d="M22.0596 4.19902C22.0596 3.49912 22.629 2.92969 23.3289 2.92969H27.6442C28.3442 2.92969 28.9136 3.49912 28.9136 4.19902V5.91123H31.8433V4.19902C31.8433 1.88369 29.9596 0 27.6442 0H23.3289C21.0136 0 19.1299 1.88369 19.1299 4.19902V5.91123H22.0596V4.19902Z" fill="white"/>
</svg>
