<svg width="80" height="94" viewBox="0 0 80 94" fill="none" xmlns="http://www.w3.org/2000/svg">
<g clip-path="url(#clip0)">
<path d="M0.916565 44.4009C0.917503 44.3997 0.918282 44.3985 0.919373 44.3974L17.2481 25.3036C18.4714 23.8732 20.45 23.8786 21.6677 25.3161C22.8852 26.7535 22.8805 29.0783 21.6572 30.5089L10.6941 43.3281H76.875C78.6009 43.3281 80 44.972 80 47C80 49.028 78.6009 50.6719 76.875 50.6719H10.6942L21.657 63.4911C22.8803 64.9217 22.885 67.2465 21.6675 68.6839C20.4498 70.1216 18.4711 70.1266 17.248 68.6964L0.91922 49.6026C0.918282 49.6015 0.917496 49.6002 0.916405 49.5991C-0.307503 48.1638 -0.303596 45.8314 0.916565 44.4009Z" fill="#FFFCFC"/>
</g>
<defs>
<clipPath id="clip0">
<rect width="80" height="94" fill="white" transform="matrix(-1 0 0 1 80 0)"/>
</clipPath>
</defs>
</svg>
