<svg width="476" height="59" viewBox="0 0 476 59" fill="none" xmlns="http://www.w3.org/2000/svg">
<path d="M3.76 45C2.94933 45 2.20267 44.7653 1.52 44.296C0.965334 43.912 0.666667 43.4853 0.624 43.016C0.538667 42.1627 0.496 38.792 0.496 32.904C0.496 20.104 1.05067 10.12 2.16 2.952C2.37333 1.88533 2.928 1.096 3.824 0.584C4.336 0.285332 4.86933 0.135998 5.424 0.135998C5.85067 0.135998 6.27733 0.221331 6.704 0.391998C9.52 1.672 11.7813 3.99733 13.488 7.368C15.2373 10.696 16.5387 14.216 17.392 17.928C18.288 21.5973 18.8427 24.584 19.056 26.888C19.0987 26.8027 19.2053 26.2693 19.376 25.288C19.6747 23.24 20.2293 20.3173 21.04 16.52C21.8507 12.7227 22.8747 9.224 24.112 6.024C25.392 2.78133 26.8853 1.01066 28.592 0.711998H28.72C32.56 0.711998 34.6293 4.85066 34.928 13.128C35.0133 15.1333 35.056 16.9893 35.056 18.696L34.928 24.328C34.6293 33.5013 34.4373 38.8347 34.352 40.328C34.1813 42.2053 33.8613 43.4213 33.392 43.976C32.9653 44.488 32.2827 44.744 31.344 44.744C28.8267 44.744 27.3333 43.8907 26.864 42.184C26.5653 40.9467 26.416 39.688 26.416 38.408L26.544 35.144C26.544 30.536 26.6933 25.544 26.992 20.168C27.2053 15.5173 27.312 11.4 27.312 7.816C25.8613 10.6747 24.752 13.8747 23.984 17.416C23.216 20.9147 22.6187 24.1573 22.192 27.144C21.6373 31.1973 21.0613 33.6293 20.464 34.44C19.7387 35.08 18.8853 35.4 17.904 35.4C17.52 35.4 17.2 35.3573 16.944 35.272L16.56 35.208C15.7067 34.824 14.9813 33.5867 14.384 31.496C13.8293 29.4053 13.296 26.888 12.784 23.944C12.2293 20.5733 11.5253 17.288 10.672 14.088C9.81867 10.8453 8.624 8.328 7.088 6.536C6.704 12.7227 6.448 18.8453 6.32 24.904C6.23467 30.9627 6.192 36.7013 6.192 42.12C6.10667 44.04 5.296 45 3.76 45ZM60.0935 45C59.1122 45 58.3015 44.936 57.6615 44.808C57.0215 44.6373 56.6162 44.296 56.4455 43.784C56.3175 43.272 56.2535 42.5893 56.2535 41.736V40.328C53.4375 43.4427 50.7922 45 48.3175 45C48.1895 45 47.4215 44.9573 46.0135 44.872C44.6482 44.744 43.1122 43.528 41.4055 41.224C39.7415 38.8773 38.9095 36.3387 38.9095 33.608C38.9095 28.8293 39.6135 25.1387 41.0215 22.536C43.3255 18.2267 46.7175 16.072 51.1975 16.072C51.4962 16.072 52.2215 16.136 53.3735 16.264C54.5255 16.392 55.7415 16.8827 57.0215 17.736C57.1068 17.3947 57.2562 17.096 57.4695 16.84C57.6828 16.5413 57.9602 16.3707 58.3015 16.328C58.6428 16.2853 59.0055 16.264 59.3895 16.264C60.0295 16.264 60.6908 16.392 61.3735 16.648C62.0988 16.904 62.4828 17.7787 62.5255 19.272L62.5895 26.888C62.5895 31.8373 62.2908 37.8533 61.6935 44.936L60.0935 45ZM48.1255 41.928C48.8082 41.928 49.5335 41.5867 50.3015 40.904C52.9895 38.6427 55.0802 35.2933 56.5735 30.856C56.6588 30.088 56.7015 29.3627 56.7015 28.68C56.7015 26.376 56.2108 24.5413 55.2295 23.176C54.2908 21.8107 53.1602 21.128 51.8375 21.128C51.4108 21.128 50.6215 21.2987 49.4695 21.64C48.3602 21.9813 47.0802 24.008 45.6295 27.72C44.8615 29.9813 44.4775 32.136 44.4775 34.184C44.4775 34.696 44.5415 35.72 44.6695 37.256C44.8402 38.7493 45.4588 40.0507 46.5255 41.16C47.0375 41.672 47.5708 41.928 48.1255 41.928ZM51.3255 10.696H51.2615C50.8348 10.696 50.6215 10.4187 50.6215 9.864C50.6215 9.096 50.8348 8.17867 51.2615 7.112C51.6882 6.00267 52.1575 5.08533 52.6695 4.36C53.2242 3.63467 53.7575 3.272 54.2695 3.272H54.3335C55.4855 3.48533 56.0615 3.93333 56.0615 4.616C56.0615 4.78666 55.9335 5.192 55.6775 5.832C55.4642 6.42933 54.8242 7.28266 53.7575 8.392C52.7335 9.45866 51.9228 10.2267 51.3255 10.696ZM75.627 45.512C73.451 45.512 71.3817 44.7867 69.419 43.336C67.4563 41.8853 66.3683 39.368 66.155 35.784C66.1977 34.76 66.667 34.0347 67.563 33.608C68.2883 33.2667 69.0137 33.096 69.739 33.096C69.9097 33.096 70.251 33.1387 70.763 33.224C71.275 33.2667 71.595 33.5867 71.723 34.184C72.0643 39.5173 73.1737 42.2267 75.051 42.312C77.2697 42.312 78.4857 41.352 78.699 39.432V39.048C78.699 36.616 76.5657 33.8 72.299 30.6C70.507 29.2347 69.2483 27.9333 68.523 26.696C67.9683 25.8427 67.691 24.6053 67.691 22.984C67.691 22.344 67.7337 21.6613 67.819 20.936C68.459 18.2907 69.803 16.4347 71.851 15.368C73.4297 14.5573 75.0723 14.152 76.779 14.152C77.291 14.152 78.2297 14.2587 79.595 14.472C80.9603 14.6427 82.219 15.432 83.371 16.84C84.0537 17.5227 84.6297 18.4827 85.099 19.72C85.4403 20.6587 85.611 21.512 85.611 22.28C85.611 22.536 85.5683 22.984 85.483 23.624C85.4403 24.2213 84.907 24.5413 83.883 24.584C83.1577 24.584 82.6883 24.264 82.475 23.624C82.3043 22.984 82.219 22.536 82.219 22.28C82.0483 19.8053 81.3657 18.3333 80.171 17.864C79.7443 17.6933 79.3177 17.608 78.891 17.608C78.0803 17.608 77.1417 17.9493 76.075 18.632C75.051 19.3147 74.3043 20.3813 73.835 21.832C73.707 22.216 73.643 22.6 73.643 22.984C73.643 24.0507 74.1123 25.096 75.051 26.12L77.355 28.36C79.8297 30.3227 81.707 32.6053 82.987 35.208C83.4563 36.5307 83.691 37.7467 83.691 38.856C83.691 40.264 83.115 41.672 81.963 43.08C80.8537 44.4453 79.0403 45.2347 76.523 45.448L75.627 45.512ZM114.69 45.512C112.514 45.512 110.444 44.7867 108.482 43.336C106.519 41.8853 105.431 39.368 105.218 35.784C105.26 34.76 105.73 34.0347 106.626 33.608C107.351 33.2667 108.076 33.096 108.802 33.096C108.972 33.096 109.314 33.1387 109.826 33.224C110.338 33.2667 110.658 33.5867 110.786 34.184C111.127 39.5173 112.236 42.2267 114.114 42.312C116.332 42.312 117.548 41.352 117.762 39.432V39.048C117.762 36.616 115.628 33.8 111.362 30.6C109.57 29.2347 108.311 27.9333 107.586 26.696C107.031 25.8427 106.754 24.6053 106.754 22.984C106.754 22.344 106.796 21.6613 106.882 20.936C107.522 18.2907 108.866 16.4347 110.914 15.368C112.492 14.5573 114.135 14.152 115.842 14.152C116.354 14.152 117.292 14.2587 118.658 14.472C120.023 14.6427 121.282 15.432 122.434 16.84C123.116 17.5227 123.692 18.4827 124.162 19.72C124.503 20.6587 124.674 21.512 124.674 22.28C124.674 22.536 124.631 22.984 124.546 23.624C124.503 24.2213 123.97 24.5413 122.946 24.584C122.22 24.584 121.751 24.264 121.538 23.624C121.367 22.984 121.282 22.536 121.282 22.28C121.111 19.8053 120.428 18.3333 119.234 17.864C118.807 17.6933 118.38 17.608 117.954 17.608C117.143 17.608 116.204 17.9493 115.138 18.632C114.114 19.3147 113.367 20.3813 112.898 21.832C112.77 22.216 112.706 22.6 112.706 22.984C112.706 24.0507 113.175 25.096 114.114 26.12L116.418 28.36C118.892 30.3227 120.77 32.6053 122.05 35.208C122.519 36.5307 122.753 37.7467 122.753 38.856C122.753 40.264 122.178 41.672 121.026 43.08C119.916 44.4453 118.103 45.2347 115.586 45.448L114.69 45.512ZM148.469 45C147.487 45 146.677 44.936 146.037 44.808C145.397 44.6373 144.991 44.296 144.821 43.784C144.693 43.272 144.628 42.5893 144.628 41.736V40.328C141.813 43.4427 139.167 45 136.693 45C136.565 45 135.797 44.9573 134.389 44.872C133.023 44.744 131.487 43.528 129.781 41.224C128.117 38.8773 127.285 36.3387 127.285 33.608C127.285 28.8293 127.989 25.1387 129.397 22.536C131.701 18.2267 135.093 16.072 139.573 16.072C139.871 16.072 140.597 16.136 141.749 16.264C142.901 16.392 144.117 16.8827 145.397 17.736C145.482 17.3947 145.631 17.0747 145.845 16.776C146.058 16.4773 146.293 16.328 146.549 16.328L147.765 16.264C148.405 16.264 149.066 16.392 149.749 16.648C150.474 16.904 150.858 17.7787 150.901 19.272L150.965 26.888C150.965 31.8373 150.666 37.8533 150.069 44.936L148.469 45ZM136.501 41.928C137.183 41.928 137.909 41.5867 138.677 40.904C141.365 38.6427 143.455 35.2933 144.949 30.856C145.034 30.088 145.077 29.3627 145.077 28.68C145.077 26.376 144.586 24.5413 143.605 23.176C142.666 21.8107 141.535 21.128 140.213 21.128C139.786 21.128 138.997 21.2987 137.845 21.64C136.735 21.9813 135.455 24.008 134.005 27.72C133.237 29.9813 132.853 32.136 132.853 34.184C132.853 34.696 132.917 35.72 133.045 37.256C133.215 38.7493 133.834 40.0507 134.901 41.16C135.413 41.672 135.946 41.928 136.501 41.928ZM162.466 58.568C162.167 58.568 161.399 58.504 160.162 58.376C158.925 58.248 157.858 56.8613 156.962 54.216C156.749 53.3627 156.642 52.5307 156.642 51.72C156.642 47.9653 159.522 44.1893 165.282 40.392L167.65 38.664C167.479 37.6827 166.562 37.0427 164.898 36.744C163.277 36.4027 161.015 36.1893 158.114 36.104C156.535 35.3787 155.703 34.2907 155.618 32.84C155.661 32.3707 156.301 31.7947 157.538 31.112C158.818 30.4293 160.375 29.6827 162.21 28.872C165.666 27.3787 168.631 25.8 171.106 24.136C172.599 22.9413 173.346 21.9173 173.346 21.064C173.346 20.3387 172.621 19.9333 171.17 19.848C169.591 19.8907 167.287 20.488 164.258 21.64C162.466 22.28 160.461 22.92 158.242 23.56C155.426 22.408 154.018 20.7867 154.018 18.696C154.018 18.3973 154.103 17.9707 154.274 17.416C154.445 16.8187 155.021 16.4133 156.002 16.2C161.165 15.2613 165.111 14.792 167.842 14.792C168.61 14.792 169.805 14.8987 171.426 15.112C173.047 15.2827 174.391 15.9653 175.458 17.16C176.098 17.8853 176.418 19.0587 176.418 20.68C176.418 21.9173 176.247 22.92 175.906 23.688C174.925 25.352 172.941 27.0587 169.954 28.808C167.01 30.5147 164.023 31.6667 160.994 32.264H162.594C167.799 32.264 171.533 33.0533 173.794 34.632C174.989 35.528 175.586 36.8933 175.586 38.728C175.586 39.1973 175.458 40.1787 175.202 41.672C174.946 43.4213 174.391 45.5973 173.538 48.2C172.429 51.6987 170.722 54.344 168.418 56.136C166.413 57.7573 164.429 58.568 162.466 58.568ZM162.274 55.304C163.17 55.304 164.279 54.6427 165.602 53.32C166.925 52.04 167.65 48.7973 167.778 43.592V42.888C167.778 42.76 167.778 42.6747 167.778 42.632C167.821 42.5467 167.842 41.864 167.842 40.584C163.191 43.784 160.482 46.6853 159.714 49.288C159.458 50.2267 159.33 51.0587 159.33 51.784C159.33 53.1067 159.757 54.088 160.61 54.728C161.122 55.112 161.677 55.304 162.274 55.304ZM190.227 44.936H189.395C186.195 44.936 183.699 43.9547 181.907 41.992C180.115 39.9867 179.198 37.448 179.155 34.376C179.155 32.456 179.667 29.9813 180.691 26.952C181.758 23.88 183.23 21.1707 185.107 18.824C187.07 16.3493 189.395 15.112 192.083 15.112C197.288 15.112 200.275 18.9947 201.043 26.76L201.107 29.256C201.107 33.9067 200.211 37.6187 198.419 40.392C196.627 43.1227 193.896 44.6373 190.227 44.936ZM190.803 40.84L191.443 40.712C191.827 40.6693 192.296 40.5413 192.851 40.328C193.448 40.072 194.067 39.688 194.707 39.176C195.347 38.6213 195.902 37.896 196.371 37C196.883 36.0613 197.224 34.9093 197.395 33.544C197.608 32.136 197.715 30.3013 197.715 28.04C197.672 25.8213 197.288 23.8587 196.563 22.152C195.838 20.4027 194.622 19.528 192.915 19.528H192.659C190.44 19.9547 188.798 21.6827 187.731 24.712C186.664 27.7413 186.131 30.7707 186.131 33.8C186.131 35.5493 186.515 37.1493 187.283 38.6C188.051 40.0507 189.224 40.7973 190.803 40.84ZM189.971 10.76H189.907C189.438 10.76 189.203 10.44 189.203 9.8C189.203 9.11733 189.416 8.24266 189.843 7.176C190.27 6.06666 190.76 5.14933 191.315 4.424C191.87 3.69867 192.382 3.336 192.851 3.336H192.915C194.067 3.50667 194.643 3.93333 194.643 4.616C194.643 4.78666 194.515 5.192 194.259 5.832C194.046 6.42933 193.406 7.28266 192.339 8.392C191.315 9.50133 190.526 10.2907 189.971 10.76ZM225.022 44.936H224.638C223.87 44.936 223.251 44.552 222.782 43.784C222.355 43.016 222.142 41.4373 222.142 39.048C222.142 38.152 222.206 36.9147 222.334 35.336C222.718 31.88 222.974 27.6987 223.102 22.792C222.163 24.5413 221.097 26.2693 219.902 27.976C218.707 29.6827 217.406 31.7093 215.998 34.056C214.59 36.4027 213.097 39.4107 211.518 43.08C210.963 44.2747 210.046 44.872 208.766 44.872H208.51C206.974 44.616 205.929 44.3173 205.374 43.976C205.161 42.184 205.054 40.008 205.054 37.448C205.054 35.4853 205.118 33.288 205.246 30.856C205.417 27.4853 205.502 24.008 205.502 20.424C205.502 16.84 206.206 15.048 207.614 15.048C207.913 15.048 208.339 15.2187 208.894 15.56C209.491 15.9013 210.089 16.584 210.686 17.608C211.326 18.5893 211.667 19.528 211.71 20.424C211.582 21.9173 211.518 24.328 211.518 27.656L211.582 33.416C212.99 30.984 214.057 29.064 214.782 27.656C215.721 25.7787 216.702 24.072 217.726 22.536C219.262 20.488 220.841 19.272 222.462 18.888C223.102 18.7173 223.699 18.632 224.254 18.632C225.107 18.632 225.961 18.8667 226.814 19.336C227.71 19.8053 228.158 20.4027 228.158 21.128C228.158 30.1307 228.201 35.6773 228.286 37.768V38.792C228.286 41.0107 228.009 42.5893 227.454 43.528C226.942 44.4667 226.131 44.936 225.022 44.936ZM232.356 45C232.057 44.9573 231.908 44.7867 231.908 44.488C231.908 44.1893 231.972 43.8267 232.1 43.4C232.228 42.9733 232.292 42.6107 232.292 42.312V42.056C231.78 41.0747 231.524 40.2853 231.524 39.688C231.524 38.7067 231.993 38.216 232.932 38.216C233.487 38.216 233.956 38.472 234.34 38.984C234.681 39.3253 234.852 39.7947 234.852 40.392C234.852 40.648 234.767 41.1173 234.596 41.8C234.468 42.4827 233.721 43.5493 232.356 45ZM257.927 44.808C257.201 44.808 256.604 44.7013 256.135 44.488C255.708 44.232 255.473 43.9547 255.431 43.656C255.303 41.6507 255.239 39.24 255.239 36.424C255.239 35.016 255.26 32.6907 255.303 29.448C255.388 26.2053 255.857 22.3867 256.711 17.992C256.796 17.5227 257.052 17.1173 257.479 16.776C257.948 16.4347 258.439 16.264 258.951 16.264C259.42 16.264 259.783 16.4987 260.039 16.968C260.295 17.6933 260.423 18.6747 260.423 19.912C260.423 21.1067 260.295 22.5573 260.039 24.264C259.697 26.568 259.527 28.808 259.527 30.984C259.527 31.6667 259.548 32.328 259.591 32.968C260.06 31.9013 260.508 30.6213 260.935 29.128C261.404 27.3787 261.959 25.7787 262.599 24.328C263.239 22.8773 264.028 22.0667 264.967 21.896C265.82 21.896 266.524 22.408 267.079 23.432C267.633 24.4133 268.103 25.6293 268.487 27.08C268.913 28.5307 269.276 29.896 269.575 31.176C269.745 32.1147 269.916 32.8187 270.087 33.288L270.471 31.432C270.812 29.8107 271.281 27.8693 271.878 25.608C272.519 23.304 273.308 21.256 274.247 19.464C275.185 17.672 276.316 16.6907 277.639 16.52C280.711 16.52 282.396 19.1867 282.695 24.52L282.759 27.528C282.759 28.4667 282.737 29.3627 282.695 30.216V31.688L282.503 36.296C282.417 38.856 282.311 40.7333 282.183 41.928C282.055 43.1227 281.82 43.8907 281.479 44.232C281.137 44.5733 280.497 44.744 279.559 44.744C277.383 44.744 276.188 43.848 275.975 42.056V39.688L276.039 38.6C276.039 35.656 276.145 32.456 276.359 29C276.529 26.0133 276.636 23.368 276.679 21.064C274.929 23.88 273.564 28.0187 272.583 33.48C272.156 36.0827 271.687 37.64 271.175 38.152C270.663 38.536 270.108 38.728 269.51 38.728L268.103 38.6C267.548 38.4293 267.164 37.896 266.951 37C266.737 36.104 266.588 35.1013 266.503 33.992C266.417 32.84 266.268 31.7733 266.055 30.792C265.884 29.8107 265.521 29.0853 264.967 28.616H264.903C264.647 28.616 264.241 29.2987 263.687 30.664C262.407 34.0347 261.276 37.9387 260.295 42.376C260.081 43.9973 259.292 44.808 257.927 44.808ZM307.594 45C306.612 45 305.802 44.936 305.162 44.808C304.522 44.6373 304.116 44.296 303.946 43.784C303.818 43.272 303.753 42.5893 303.753 41.736V40.328C300.938 43.4427 298.292 45 295.818 45C295.69 45 294.922 44.9573 293.514 44.872C292.148 44.744 290.612 43.528 288.906 41.224C287.242 38.8773 286.41 36.3387 286.41 33.608C286.41 28.8293 287.114 25.1387 288.522 22.536C290.826 18.2267 294.218 16.072 298.698 16.072C298.996 16.072 299.722 16.136 300.874 16.264C302.026 16.392 303.242 16.8827 304.522 17.736C304.607 17.3947 304.756 17.096 304.97 16.84C305.183 16.5413 305.46 16.3707 305.802 16.328C306.143 16.2853 306.506 16.264 306.89 16.264C307.53 16.264 308.191 16.392 308.874 16.648C309.599 16.904 309.983 17.7787 310.026 19.272L310.09 26.888C310.09 31.8373 309.791 37.8533 309.194 44.936L307.594 45ZM295.626 41.928C296.308 41.928 297.034 41.5867 297.802 40.904C300.49 38.6427 302.58 35.2933 304.074 30.856C304.159 30.088 304.202 29.3627 304.202 28.68C304.202 26.376 303.711 24.5413 302.73 23.176C301.791 21.8107 300.66 21.128 299.338 21.128C298.911 21.128 298.122 21.2987 296.97 21.64C295.86 21.9813 294.58 24.008 293.13 27.72C292.362 29.9813 291.978 32.136 291.978 34.184C291.978 34.696 292.042 35.72 292.17 37.256C292.34 38.7493 292.959 40.0507 294.026 41.16C294.538 41.672 295.071 41.928 295.626 41.928ZM298.826 10.696H298.762C298.335 10.696 298.122 10.4187 298.122 9.864C298.122 9.096 298.335 8.17867 298.762 7.112C299.188 6.00267 299.658 5.08533 300.17 4.36C300.724 3.63467 301.258 3.272 301.77 3.272H301.833C302.986 3.48533 303.562 3.93333 303.562 4.616C303.562 4.78666 303.434 5.192 303.178 5.832C302.964 6.42933 302.324 7.28266 301.258 8.392C300.234 9.45866 299.423 10.2267 298.826 10.696ZM323.127 45.512C320.951 45.512 318.882 44.7867 316.919 43.336C314.956 41.8853 313.868 39.368 313.655 35.784C313.698 34.76 314.167 34.0347 315.063 33.608C315.788 33.2667 316.514 33.096 317.239 33.096C317.41 33.096 317.751 33.1387 318.263 33.224C318.775 33.2667 319.095 33.5867 319.223 34.184C319.564 39.5173 320.674 42.2267 322.551 42.312C324.77 42.312 325.986 41.352 326.199 39.432V39.048C326.199 36.616 324.066 33.8 319.799 30.6C318.007 29.2347 316.748 27.9333 316.023 26.696C315.468 25.8427 315.191 24.6053 315.191 22.984C315.191 22.344 315.234 21.6613 315.319 20.936C315.959 18.2907 317.303 16.4347 319.351 15.368C320.93 14.5573 322.572 14.152 324.279 14.152C324.791 14.152 325.73 14.2587 327.095 14.472C328.46 14.6427 329.719 15.432 330.871 16.84C331.554 17.5227 332.13 18.4827 332.599 19.72C332.94 20.6587 333.111 21.512 333.111 22.28C333.111 22.536 333.068 22.984 332.983 23.624C332.94 24.2213 332.407 24.5413 331.383 24.584C330.658 24.584 330.188 24.264 329.975 23.624C329.804 22.984 329.719 22.536 329.719 22.28C329.548 19.8053 328.866 18.3333 327.671 17.864C327.244 17.6933 326.818 17.608 326.391 17.608C325.58 17.608 324.642 17.9493 323.575 18.632C322.551 19.3147 321.804 20.3813 321.335 21.832C321.207 22.216 321.143 22.6 321.143 22.984C321.143 24.0507 321.612 25.096 322.551 26.12L324.855 28.36C327.33 30.3227 329.207 32.6053 330.487 35.208C330.956 36.5307 331.191 37.7467 331.191 38.856C331.191 40.264 330.615 41.672 329.463 43.08C328.354 44.4453 326.54 45.2347 324.023 45.448L323.127 45.512ZM362.19 45.512C360.014 45.512 357.944 44.7867 355.982 43.336C354.019 41.8853 352.931 39.368 352.718 35.784C352.76 34.76 353.23 34.0347 354.126 33.608C354.851 33.2667 355.576 33.096 356.302 33.096C356.472 33.096 356.814 33.1387 357.326 33.224C357.838 33.2667 358.158 33.5867 358.286 34.184C358.627 39.5173 359.736 42.2267 361.614 42.312C363.832 42.312 365.048 41.352 365.262 39.432V39.048C365.262 36.616 363.128 33.8 358.862 30.6C357.07 29.2347 355.811 27.9333 355.086 26.696C354.531 25.8427 354.254 24.6053 354.254 22.984C354.254 22.344 354.296 21.6613 354.382 20.936C355.022 18.2907 356.366 16.4347 358.414 15.368C359.992 14.5573 361.635 14.152 363.342 14.152C363.854 14.152 364.792 14.2587 366.158 14.472C367.523 14.6427 368.782 15.432 369.934 16.84C370.616 17.5227 371.192 18.4827 371.662 19.72C372.003 20.6587 372.174 21.512 372.174 22.28C372.174 22.536 372.131 22.984 372.046 23.624C372.003 24.2213 371.47 24.5413 370.446 24.584C369.72 24.584 369.251 24.264 369.038 23.624C368.867 22.984 368.782 22.536 368.782 22.28C368.611 19.8053 367.928 18.3333 366.734 17.864C366.307 17.6933 365.88 17.608 365.454 17.608C364.643 17.608 363.704 17.9493 362.638 18.632C361.614 19.3147 360.867 20.3813 360.398 21.832C360.27 22.216 360.206 22.6 360.206 22.984C360.206 24.0507 360.675 25.096 361.614 26.12L363.918 28.36C366.392 30.3227 368.27 32.6053 369.55 35.208C370.019 36.5307 370.253 37.7467 370.253 38.856C370.253 40.264 369.678 41.672 368.526 43.08C367.416 44.4453 365.603 45.2347 363.086 45.448L362.19 45.512ZM395.969 45C394.987 45 394.177 44.936 393.537 44.808C392.897 44.6373 392.491 44.296 392.321 43.784C392.193 43.272 392.128 42.5893 392.128 41.736V40.328C389.313 43.4427 386.667 45 384.193 45C384.065 45 383.297 44.9573 381.889 44.872C380.523 44.744 378.987 43.528 377.281 41.224C375.617 38.8773 374.785 36.3387 374.785 33.608C374.785 28.8293 375.489 25.1387 376.897 22.536C379.201 18.2267 382.593 16.072 387.073 16.072C387.371 16.072 388.097 16.136 389.249 16.264C390.401 16.392 391.617 16.8827 392.897 17.736C392.982 17.3947 393.131 17.0747 393.345 16.776C393.558 16.4773 393.793 16.328 394.049 16.328L395.265 16.264C395.905 16.264 396.566 16.392 397.249 16.648C397.974 16.904 398.358 17.7787 398.401 19.272L398.465 26.888C398.465 31.8373 398.166 37.8533 397.569 44.936L395.969 45ZM384.001 41.928C384.683 41.928 385.409 41.5867 386.177 40.904C388.865 38.6427 390.955 35.2933 392.449 30.856C392.534 30.088 392.577 29.3627 392.577 28.68C392.577 26.376 392.086 24.5413 391.105 23.176C390.166 21.8107 389.035 21.128 387.713 21.128C387.286 21.128 386.497 21.2987 385.345 21.64C384.235 21.9813 382.955 24.008 381.505 27.72C380.737 29.9813 380.353 32.136 380.353 34.184C380.353 34.696 380.417 35.72 380.545 37.256C380.715 38.7493 381.334 40.0507 382.401 41.16C382.913 41.672 383.446 41.928 384.001 41.928ZM414.254 44.936C412.462 44.936 410.969 44.4453 409.774 43.464C409.774 44.4027 409.113 44.872 407.79 44.872C407.534 44.872 407.129 44.8507 406.574 44.808C406.062 44.7227 405.465 44.5947 404.782 44.424C404.142 44.2107 403.715 44.04 403.502 43.912C403.203 41.9067 403.054 39.3467 403.054 36.232C403.054 32.4773 403.225 27.3573 403.566 20.872C403.822 16.4773 403.993 12.296 404.078 8.328C404.249 2.824 406.467 0.0719986 410.734 0.0719986C411.331 0.0719986 412.057 0.157332 412.91 0.327999C415.427 0.925332 416.686 2.54667 416.686 5.192C416.686 5.66133 416.558 6.664 416.302 8.2C416.089 9.736 415.299 11.8267 413.934 14.472C412.611 17.1173 411.225 19.144 409.774 20.552V22.984C413.23 18.504 416.622 16.264 419.95 16.264C423.107 16.264 425.475 17.864 427.054 21.064C427.865 22.6853 428.27 24.6053 428.27 26.824C428.27 28.9573 427.886 31.368 427.118 34.056C425.966 37.512 424.302 40.1147 422.126 41.864C419.566 43.912 416.942 44.936 414.254 44.936ZM409.774 17.288C412.163 13.96 413.571 10.9733 413.998 8.328C414.126 7.38933 414.19 6.55733 414.19 5.832C414.19 4.50933 413.977 3.528 413.55 2.888C413.294 2.46133 413.017 2.248 412.718 2.248C412.291 2.248 411.737 2.824 411.054 3.976C410.371 5.128 409.966 8.136 409.838 13L409.774 17.288ZM413.742 40.456C415.875 40.456 418.478 37.4693 421.55 31.496C422.873 28.68 423.534 26.184 423.534 24.008C423.534 21.064 422.531 19.592 420.526 19.592C419.161 19.592 417.518 20.552 415.598 22.472C414.019 24.0507 412.654 25.736 411.502 27.528C410.393 29.2773 409.817 30.6 409.774 31.496C409.945 36.9573 411.118 39.9227 413.294 40.392L413.742 40.456ZM442.04 44.872H441.08C437.922 44.872 435.448 43.8907 433.656 41.928C431.906 39.9227 431.01 37.4053 430.968 34.376C430.968 32.4133 431.48 29.9173 432.504 26.888C433.57 23.816 435.042 21.1067 436.92 18.76C438.882 16.2853 441.208 15.048 443.896 15.048C449.101 15.048 452.088 18.9307 452.856 26.696L452.92 29.256C452.92 33.9067 452.024 37.6187 450.232 40.392C448.44 43.1227 445.709 44.616 442.04 44.872ZM442.616 40.776L443.256 40.712C443.64 40.6693 444.109 40.52 444.664 40.264C445.261 40.008 445.88 39.624 446.52 39.112C447.16 38.6 447.714 37.8747 448.184 36.936C448.696 35.9973 449.037 34.8453 449.208 33.48C449.421 32.1147 449.528 30.3013 449.528 28.04C449.485 25.8213 449.101 23.8373 448.376 22.088C447.65 20.3387 446.434 19.464 444.728 19.464H444.472C442.253 19.8907 440.61 21.64 439.544 24.712C438.477 27.7413 437.944 30.7493 437.944 33.736C437.944 35.528 438.328 37.1493 439.095 38.6C439.864 40.008 441.037 40.7333 442.616 40.776ZM459.619 44.744C458.808 44.744 457.933 43.464 456.995 40.904C456.995 29 457.037 20.7227 457.123 16.072C457.251 15.304 457.72 14.7707 458.531 14.472C459 14.3013 459.512 14.216 460.067 14.216C460.365 14.216 460.792 14.28 461.347 14.408C461.944 14.536 462.435 15.0053 462.819 15.816C462.819 17.5227 462.797 19.1653 462.755 20.744L463.587 19.848C466.104 17.416 468.323 16.2 470.243 16.2C470.797 16.2 471.309 16.2853 471.779 16.456C473.656 17.1387 474.765 18.4827 475.107 20.488C475.235 21.512 475.299 22.4933 475.299 23.432C475.299 24.9253 475 26.952 474.403 29.512C473.891 31.2187 472.76 32.072 471.01 32.072C469.432 32.072 468.387 31.496 467.875 30.344C467.96 29.7893 468.216 28.8507 468.643 27.528C469.24 25.8213 469.752 23.8587 470.179 21.64L470.243 21.128C470.243 20.4027 469.859 20.04 469.091 20.04C468.877 20.04 468.557 20.104 468.131 20.232C467.747 20.36 467.448 20.5307 467.235 20.744C466.424 21.5547 464.888 22.984 462.627 25.032C462.499 29 462.157 34.3333 461.603 41.032C461.389 43.1227 460.835 44.3387 459.939 44.68C459.853 44.7227 459.747 44.744 459.619 44.744Z" fill="white"/>
</svg>
