<svg width="39" height="44" viewBox="0 0 39 44" fill="none" xmlns="http://www.w3.org/2000/svg">
<g clip-path="url(#clip0)">
<path d="M36.9213 17.8236L5.90402 0.890099C3.8609 -0.227101 1.40194 0.735831 0.411618 3.04089C-0.0933406 4.21624 -0.135574 5.5773 0.295274 6.78971L5.14076 20.4517H39C38.6435 19.2992 37.8958 18.3538 36.9213 17.8236Z" fill="#422112"/>
<path d="M5.14084 23.5437L0.295357 37.2088C-0.545464 39.5946 0.487176 42.2977 2.60184 43.2464C3.08062 43.4612 3.59096 43.5728 4.10619 43.5753C4.72878 43.5753 5.34334 43.4168 5.90402 43.1115L36.9213 26.1719C37.8958 25.6416 38.6436 24.6962 39 23.5437H5.14084Z" fill="#422112"/>
</g>
<defs>
<clipPath id="clip0">
<rect width="39" height="44" fill="white"/>
</clipPath>
</defs>
</svg>
