<svg width="150" height="150" viewBox="0 0 150 150" fill="none" xmlns="http://www.w3.org/2000/svg">
<g clip-path="url(#clip0)">
<path d="M100.031 11.3674H89.0555C87.686 11.325 86.5092 10.3834 86.1672 9.05701C85.1272 3.65379 80.3062 -0.18681 74.8072 0.00741299C69.275 -0.0895141 64.4776 3.81337 63.4472 9.24976C63.0912 10.5397 61.896 11.4161 60.5589 11.3678H49.9688V30.6224H100.031V11.3674Z" fill="white"/>
<path d="M130.838 141.143V30.8143C130.85 26.4544 127.325 22.9105 122.965 22.8987C122.765 22.8983 122.565 22.9053 122.366 22.9197H105.807V32.7396C105.807 34.2801 104.844 36.3981 103.304 36.3981H46.5031C44.9626 36.3981 44.1927 34.2801 44.1927 32.7396V22.9201H27.6336C23.2855 22.6009 19.5017 25.8673 19.1829 30.2158C19.1682 30.4152 19.1612 30.6149 19.1619 30.8147V141.143C19.0543 145.927 22.8455 149.893 27.6296 150C27.631 150 27.6325 150 27.634 150H122.366C127.15 149.895 130.944 145.931 130.838 141.147C130.838 141.146 130.838 141.144 130.838 141.143ZM59.4036 115.727L44.3851 129.783C43.9048 130.357 43.2072 130.706 42.4598 130.745C41.6552 130.714 40.8949 130.368 40.3418 129.783L32.4475 121.696C31.3983 120.521 31.4842 118.722 32.6399 117.652C33.7629 116.552 35.5603 116.552 36.6832 117.652L42.4594 123.814L55.5527 111.491C56.8654 110.585 58.6643 110.914 59.5702 112.227C60.3095 113.298 60.2409 114.731 59.4036 115.727ZM59.4036 84.9195L44.3851 98.9754C43.9048 99.55 43.2072 99.8986 42.4598 99.9381C41.6552 99.9064 40.8949 99.5607 40.3418 98.9754L32.4475 90.8885C31.3983 89.7135 31.4842 87.9147 32.6399 86.8452C33.7629 85.7443 35.5603 85.7443 36.6832 86.8452L42.4594 93.0065L55.5527 80.6835C56.8654 79.7776 58.6643 80.1071 59.5702 81.4198C60.3095 82.4908 60.2409 83.9237 59.4036 84.9195ZM59.4036 54.1122L44.3851 68.1681C43.9048 68.7426 43.2072 69.0913 42.4598 69.1307C41.6552 69.099 40.8949 68.7533 40.3418 68.1681L32.4475 60.0811C31.3983 58.9062 31.4842 57.1073 32.6399 56.0378C33.7629 54.937 35.5603 54.937 36.6832 56.0378L42.4594 62.1992L55.5527 49.8761C56.8654 48.9703 58.6643 49.2997 59.5702 50.6125C60.3095 51.6835 60.2409 53.1164 59.4036 54.1122ZM115.434 126.894H71.1487C69.5537 126.894 68.2604 125.601 68.2604 124.006C68.2604 122.411 69.5537 121.118 71.1487 121.118H115.434C117.029 121.118 118.322 122.411 118.322 124.006C118.322 125.601 117.029 126.894 115.434 126.894ZM115.434 96.0871H71.1487C69.5537 96.0871 68.2604 94.7939 68.2604 93.1989C68.2604 91.6038 69.5537 90.3106 71.1487 90.3106H115.434C117.029 90.3106 118.322 91.6038 118.322 93.1989C118.322 94.7939 117.029 96.0871 115.434 96.0871ZM115.434 65.2798H71.1487C69.5537 65.2798 68.2604 63.9866 68.2604 62.3915C68.2604 60.7965 69.5537 59.5032 71.1487 59.5032H115.434C117.029 59.5032 118.322 60.7965 118.322 62.3915C118.322 63.987 117.029 65.2798 115.434 65.2798Z" fill="white"/>
</g>
<defs>
<clipPath id="clip0">
<rect width="150" height="150" fill="white"/>
</clipPath>
</defs>
</svg>
