<svg width="150" height="150" viewBox="0 0 150 150" fill="none" xmlns="http://www.w3.org/2000/svg">
<g clip-path="url(#clip0)">
<path d="M126.137 122.727H23.8902C22.0094 122.727 20.4846 124.252 20.481 126.133L20.4676 136.074C20.4644 139.793 21.909 143.288 24.5358 145.918C27.1659 148.552 30.6582 150 34.377 150H115.636C123.306 150 129.545 143.761 129.545 136.091V126.136C129.545 124.252 128.021 122.727 126.137 122.727Z" fill="#323130"/>
<path d="M112.5 13.6365C110.413 13.6365 108.269 13.8461 105.998 14.269C98.1979 5.17341 87.0185 0 75.0002 0C52.4417 0 34.091 18.3506 34.091 40.9091C34.091 42.79 32.563 44.3183 30.6818 44.3183C28.801 44.3183 27.2726 42.7903 27.2726 40.9091C27.2726 33.5282 28.9707 26.387 32.3198 19.6856C32.9159 18.4938 32.7625 17.0655 31.9302 16.0268C31.098 14.9948 29.7361 14.5352 28.4446 14.8516C11.6955 19.0298 0 33.9511 0 51.1364C0 65.3053 7.99006 78.186 20.5345 84.5547L20.4977 112.497C20.4977 113.399 20.8541 114.268 21.4933 114.91C22.1357 115.549 23.0015 115.909 23.9069 115.909H126.137C128.021 115.909 129.546 114.384 129.546 112.5V84.5045C142.044 78.1192 150 65.2584 150 51.1361C150 30.4588 133.178 13.6365 112.5 13.6365ZM49.8912 94.6822C49.2552 95.2016 48.4898 95.4547 47.7307 95.4547C46.7454 95.4547 45.7664 95.0287 45.0908 94.2095C43.9655 92.8346 34.091 80.5433 34.091 71.591C34.091 69.7066 35.6159 68.1818 37.5002 68.1818C39.3846 68.1818 40.9094 69.7066 40.9094 71.591C40.9094 76.525 46.7089 85.4272 50.3642 89.8815C51.5557 91.3398 51.3461 93.4869 49.8912 94.6822ZM78.409 92.0455C78.409 93.9299 76.8842 95.4547 74.9998 95.4547C73.1155 95.4547 71.591 93.9299 71.591 92.0455V71.591C71.591 69.7066 73.1158 68.1818 75.0002 68.1818C76.8845 68.1818 78.4094 69.7066 78.4094 71.591V92.0455H78.409ZM104.91 94.2095C104.234 95.0287 103.258 95.4547 102.273 95.4547C101.511 95.4547 100.745 95.2016 100.112 94.6822C98.6574 93.4869 98.4443 91.3398 99.6361 89.885C103.292 85.4205 109.091 76.5084 109.091 71.591C109.091 69.7066 110.616 68.1818 112.5 68.1818C114.384 68.1818 115.909 69.7066 115.909 71.591C115.909 80.543 106.035 92.8346 104.91 94.2095Z" fill="#323130"/>
</g>
<defs>
<clipPath id="clip0">
<rect width="150" height="150" fill="white"/>
</clipPath>
</defs>
</svg>
