<svg width="150" height="150" viewBox="0 0 150 150" fill="none" xmlns="http://www.w3.org/2000/svg">
<path d="M136.816 17.8711C129.547 17.8711 123.633 23.785 123.633 31.0547V35.4492H150V31.0547C150 23.785 144.086 17.8711 136.816 17.8711Z" fill="#FFFEFE"/>
<path d="M136.816 141.211C138.709 141.211 140.387 140.001 140.983 138.207L148.771 114.551H124.862L132.649 138.207C133.246 140.001 134.924 141.211 136.816 141.211Z" fill="#FFFEFE"/>
<path d="M123.633 44.2383H150V105.762H123.633V44.2383Z" fill="#FFFEFE"/>
<path d="M57.4219 0C54.9949 0 53.0273 1.96699 53.0273 4.39453V17.5781H79.3945V4.39453C79.3945 1.96699 77.427 0 75 0H57.4219Z" fill="#FFFEFE"/>
<path d="M8.78906 150H83.877C81.1523 146.308 79.3945 141.738 79.3945 136.816C79.3945 134.355 77.4612 132.422 75 132.422H4.39453C1.9333 132.422 0 134.355 0 136.816V141.211C0 146.045 3.95508 150 8.78906 150Z" fill="#FFFEFE"/>
<path d="M102.265 149.97C109.384 149.499 114.844 143.433 114.844 136.298V13.1836C114.844 10.7566 112.876 8.78906 110.449 8.78906H88.1836V21.9727C88.1836 24.3996 86.216 26.3672 83.7891 26.3672H48.6328C46.2059 26.3672 44.2383 24.3996 44.2383 21.9727V8.78906H21.9727C19.5457 8.78906 17.5781 10.7566 17.5781 13.1836V123.633H75C82.2812 123.633 88.1836 129.535 88.1836 136.816C88.1836 144.394 94.5773 150.479 102.265 149.97ZM66.2109 48.6328H92.4557C94.8234 48.6328 96.8593 50.4542 96.968 52.8193C97.084 55.3433 95.076 57.4219 92.5781 57.4219H66.3334C63.9656 57.4219 61.9298 55.6005 61.8211 53.2354C61.7051 50.7114 63.7131 48.6328 66.2109 48.6328ZM96.968 79.6025C96.8593 81.9677 94.8234 83.7891 92.4557 83.7891H66.3334C63.9656 83.7891 61.9298 81.9677 61.8211 79.6025C61.7051 77.0786 63.7131 75 66.2109 75H92.5781C95.076 75 97.084 77.0786 96.968 79.6025ZM36.8889 40.986C38.6385 39.3923 41.3646 39.5449 43.038 41.2187L48.6328 46.8132L54.2276 41.2184C55.9011 39.5449 58.6271 39.392 60.3768 40.9857C62.2441 42.687 62.2948 45.5792 60.5291 47.3452L51.74 56.1343C50.8816 56.9927 49.7572 57.4219 48.6331 57.4219C47.509 57.4219 46.3843 56.9927 45.5262 56.1343L36.7371 47.3452C34.9708 45.5795 35.0215 42.687 36.8889 40.986ZM36.8889 67.3532C38.6385 65.7595 41.3646 65.9121 43.038 67.5858L48.6328 73.1804L54.2276 67.5855C55.9011 65.9121 58.6271 65.7592 60.3768 67.3529C62.2441 69.0542 62.2948 71.9464 60.5291 73.7124L51.74 82.5015C50.8816 83.3599 49.7572 83.7891 48.6331 83.7891C47.509 83.7891 46.3843 83.3599 45.5262 82.5015L36.7371 73.7124C34.9708 71.9467 35.0215 69.0542 36.8889 67.3532ZM51.7397 108.869C50.8813 109.727 49.7569 110.156 48.6328 110.156C47.5087 110.156 46.384 109.727 45.5259 108.869L36.8241 100.167C35.1507 98.4935 34.9978 95.7674 36.5915 94.0178C38.2928 92.1504 41.185 92.0997 42.951 93.8654L48.6328 99.5476L54.2276 93.9527C55.9011 92.2793 58.6271 92.1264 60.3768 93.7201C62.2441 95.4214 62.2948 98.3136 60.5291 100.08L51.7397 108.869ZM66.2109 110.156C63.7131 110.156 61.7051 108.078 61.8211 105.554C61.9298 103.189 63.9656 101.367 66.3334 101.367H92.4557C94.8234 101.367 96.8593 103.189 96.968 105.554C97.084 108.078 95.076 110.156 92.5781 110.156H66.2109Z" fill="#FFFEFE"/>
</svg>
