<svg width="75" height="80" viewBox="0 0 75 80" fill="none" xmlns="http://www.w3.org/2000/svg">
<path d="M48.4863 40C42.4288 40 37.5 45.2573 37.5 51.7188V54.0625H59.4727V51.7188C59.4727 45.2573 54.5439 40 48.4863 40Z" fill="white"/>
<path d="M22.1191 80H75V18.75H22.1191V80ZM63.8672 72.8125H33.1055V68.125H63.8672V72.8125ZM28.7109 54.0625H33.1055V51.7188C33.1055 43.4758 38.855 36.6989 46.2891 35.5494V30.625H50.6836V35.5494C58.1177 36.6989 63.8672 43.4758 63.8672 51.7188V54.0625H68.2617V58.75H28.7109V54.0625Z" fill="white"/>
<path d="M17.7246 14.0625L44.0918 0H0V61.0938H17.7246V14.0625Z" fill="white"/>
<path d="M44.0918 5.25L27.5684 14.0625H44.0918V5.25Z" fill="white"/>
</svg>
