<svg width="180" height="170" viewBox="0 0 180 170" fill="none" xmlns="http://www.w3.org/2000/svg">
<path d="M46.0525 96.2622L43.9382 91.8694C43.7142 91.4057 43.354 91.0125 42.9003 90.7365C42.4466 90.4605 41.9185 90.3133 41.3788 90.3125H39.7743C39.2074 90.3123 38.6537 90.4739 38.1857 90.7761C37.7178 91.0782 37.3574 91.5069 37.1519 92.0059C36.9464 92.5049 36.9054 93.0509 37.0342 93.5723C37.163 94.0937 37.4557 94.5662 37.8738 94.9277L50.7944 106.114L46.0546 96.2662L46.0525 96.2622Z" fill="#323130"/>
<path d="M134.702 90.3125H129.902C129.397 90.3125 128.901 90.441 128.467 90.6846C128.032 90.9282 127.675 91.2778 127.433 91.6967L112.157 118.147C111.971 118.469 111.716 118.752 111.409 118.976C111.101 119.201 110.747 119.363 110.37 119.452L99.1203 122.108C98.5467 122.244 97.9426 122.205 97.3937 121.998L69.2687 111.373C68.6292 111.131 68.1058 110.676 67.7978 110.094L58.1024 91.7807C57.8701 91.3383 57.5113 90.9663 57.0665 90.7067C56.6216 90.4472 56.1087 90.3106 55.5859 90.3125H53.7356C53.265 90.3125 52.802 90.424 52.3889 90.6368C51.9758 90.8497 51.6258 91.157 51.371 91.5306C51.1162 91.9043 50.9648 92.3324 50.9306 92.7756C50.8964 93.2189 50.9805 93.6632 51.1752 94.0678L61.3705 115.248L102.299 148.75H120.938V143.437C120.938 143.089 121.01 142.743 121.152 142.421C121.293 142.099 121.5 141.806 121.761 141.559L124.091 139.359C124.877 138.62 125.5 137.742 125.924 136.775C126.349 135.808 126.566 134.771 126.563 133.724V116.875C126.563 116.496 126.649 116.121 126.815 115.776L137.262 94.0678C137.457 93.6632 137.541 93.2189 137.507 92.7756C137.473 92.3324 137.321 91.9043 137.067 91.5306C136.812 91.157 136.462 90.8497 136.049 90.6368C135.636 90.424 135.172 90.3125 134.702 90.3125Z" fill="#323130"/>
<path d="M95.625 154.062H123.75V159.375H95.625V154.062Z" fill="#323130"/>
<path d="M151.875 71.7188C151.875 43.8902 127.903 21.25 98.4375 21.25H81.5625C52.097 21.25 28.125 43.8902 28.125 71.7188V74.375H151.875V71.7188Z" fill="#323130"/>
<path d="M16.875 85H163.125C163.871 84.9992 164.586 84.7191 165.113 84.2211C165.64 83.7232 165.937 83.048 165.938 82.3438V79.6875H14.0625V82.3438C14.0633 83.048 14.3599 83.7232 14.8872 84.2211C15.4145 84.7191 16.1293 84.9992 16.875 85Z" fill="#323130"/>
<path d="M101.25 5.3125H78.75C78.0041 5.3125 77.2887 5.59235 76.7613 6.0905C76.2338 6.58864 75.9375 7.26427 75.9375 7.96875C75.9375 8.67323 76.2338 9.34886 76.7613 9.847C77.2887 10.3451 78.0041 10.625 78.75 10.625H84.375V15.9375H95.625V10.625H101.25C101.996 10.625 102.711 10.3451 103.239 9.847C103.766 9.34886 104.062 8.67323 104.062 7.96875C104.062 7.26427 103.766 6.58864 103.239 6.0905C102.711 5.59235 101.996 5.3125 101.25 5.3125Z" fill="#323130"/>
</svg>
