<svg width="67" height="70" viewBox="0 0 67 70" fill="none" xmlns="http://www.w3.org/2000/svg">
<g clip-path="url(#clip0)">
<path d="M21.5918 24.6094H32.0605C33.1429 24.6094 34.0234 25.5294 34.0234 26.6602C34.0234 27.7927 34.9023 28.7109 35.9863 28.7109C37.0704 28.7109 37.9492 27.7927 37.9492 26.6602C37.9492 23.2678 35.3076 20.5078 32.0605 20.5078H21.5918C20.5095 20.5078 19.6289 19.5878 19.6289 18.457C19.6289 17.3262 20.5095 16.4062 21.5918 16.4062H50.3809C53.6279 16.4062 56.2695 13.6463 56.2695 10.2539C56.2695 6.8615 53.6279 4.10156 50.3809 4.10156H39.9121C38.8298 4.10156 37.9492 3.18158 37.9492 2.05078C37.9492 0.918203 37.0704 0 35.9863 0C34.9023 0 34.0234 0.918203 34.0234 2.05078C34.0234 5.44318 36.6651 8.20312 39.9121 8.20312H50.3809C51.4632 8.20312 52.3438 9.12311 52.3438 10.2539C52.3438 11.3847 51.4632 12.3047 50.3809 12.3047H21.5918C18.3448 12.3047 15.7031 15.0646 15.7031 18.457C15.7031 21.8494 18.3448 24.6094 21.5918 24.6094Z" fill="white"/>
<path d="M35.332 47.0686C35.332 44.2886 33.1749 42.0349 30.5141 42.0349C28.6357 42.0349 27.0263 43.1693 26.2314 44.8077C25.4367 43.1693 23.827 42.0349 21.9488 42.0349C20.0704 42.0349 18.4607 43.1693 17.666 44.8077C16.8713 43.1693 15.2617 42.0349 13.3833 42.0349C11.5049 42.0349 9.89545 43.1693 9.10061 44.8077C8.30591 43.1693 6.69621 42.0349 4.81785 42.0349C2.15709 42.0349 0 44.2886 0 47.0686C0 49.0311 1.08574 50.7127 2.65396 51.543C1.08574 52.3733 0 54.0551 0 56.0174C0 57.9799 1.08574 59.6616 2.65396 60.4919C1.08574 61.3222 0 63.0039 0 64.9663C0 67.7464 2.15709 70.0001 4.81798 70.0001C6.69634 70.0001 8.30591 68.8657 9.10075 67.2273C9.89545 68.8657 11.505 70.0001 13.3833 70.0001C15.2616 70.0001 16.8713 68.8657 17.666 67.2273C18.4607 68.8657 20.0703 70.0001 21.9488 70.0001C23.8271 70.0001 25.4367 68.8657 26.2314 67.2273C27.0263 68.8657 28.6357 70.0001 30.5141 70.0001C33.1749 70.0001 35.332 67.7464 35.332 64.9663C35.332 63.0039 34.2463 61.3224 32.6781 60.4919C34.2463 59.6616 35.332 57.98 35.332 56.0174C35.332 54.055 34.2463 52.3733 32.6781 51.543C34.2463 50.7127 35.332 49.0311 35.332 47.0686ZM9.81445 62.1698C8.73041 62.1698 7.85156 61.2516 7.85156 60.119C7.85156 58.9864 8.73041 58.0682 9.81445 58.0682C10.8985 58.0682 11.7773 58.9864 11.7773 60.119C11.7773 61.2517 10.8985 62.1698 9.81445 62.1698ZM9.81445 53.9666C8.73041 53.9666 7.85156 53.0484 7.85156 51.9158C7.85156 50.7833 8.73041 49.8651 9.81445 49.8651C10.8985 49.8651 11.7773 50.7833 11.7773 51.9158C11.7773 53.0486 10.8985 53.9666 9.81445 53.9666ZM17.666 62.1698C16.582 62.1698 15.7031 61.2516 15.7031 60.119C15.7031 58.9864 16.582 58.0682 17.666 58.0682C18.7501 58.0682 19.6289 58.9864 19.6289 60.119C19.6289 61.2517 18.7501 62.1698 17.666 62.1698ZM17.666 53.9666C16.582 53.9666 15.7031 53.0484 15.7031 51.9158C15.7031 50.7833 16.582 49.8651 17.666 49.8651C18.7501 49.8651 19.6289 50.7833 19.6289 51.9158C19.6289 53.0486 18.7501 53.9666 17.666 53.9666ZM25.5176 62.1698C24.4335 62.1698 23.5547 61.2516 23.5547 60.119C23.5547 58.9864 24.4335 58.0682 25.5176 58.0682C26.6016 58.0682 27.4805 58.9864 27.4805 60.119C27.4805 61.2517 26.6016 62.1698 25.5176 62.1698ZM25.5176 53.9666C24.4335 53.9666 23.5547 53.0484 23.5547 51.9158C23.5547 50.7833 24.4335 49.8651 25.5176 49.8651C26.6016 49.8651 27.4805 50.7833 27.4805 51.9158C27.4805 53.0486 26.6016 53.9666 25.5176 53.9666Z" fill="white"/>
<path d="M59.8027 30.7617H19.6289C18.5449 30.7617 17.666 31.6799 17.666 32.8125V39.107C18.9469 38.3497 20.4135 37.9334 21.9488 37.9334C23.484 37.9334 24.9506 38.3499 26.2315 39.107C27.6673 38.2581 29.3367 37.8376 31.0745 37.9518C35.4397 38.2389 38.9656 41.9225 39.2403 46.4831C39.3497 48.2986 38.9472 50.0428 38.1345 51.543C38.8593 52.8812 39.2578 54.4135 39.2578 56.0175C39.2578 57.6215 38.8593 59.1538 38.1345 60.492C38.8593 61.8302 39.2578 63.3624 39.2578 64.9664C39.2578 66.8255 38.7222 68.5557 37.8057 70.0001H44.4922C44.9514 70.0001 45.396 69.832 45.7488 69.5248C50.3417 65.5259 53.2803 59.9416 54.0833 53.8468C57.3576 53.3634 60.3766 51.7722 62.7209 49.2629C65.4803 46.3094 67 42.4093 67 38.2813C67 34.135 63.7713 30.7617 59.8027 30.7617ZM59.9116 46.398C58.3663 48.052 56.4246 49.1652 54.3066 49.6405V34.8633H59.8027C61.6066 34.8633 63.0742 36.3966 63.0742 38.2813C63.0742 41.3324 61.9511 44.215 59.9116 46.398Z" fill="white"/>
</g>
<defs>
<clipPath id="clip0">
<rect width="67" height="70" fill="white"/>
</clipPath>
</defs>
</svg>
