<svg width="85" height="70" viewBox="0 0 85 70" fill="none" xmlns="http://www.w3.org/2000/svg">
<path d="M49.7687 4.38949V0H42.5L39.1797 7.12387L49.7687 4.38949Z" fill="#FF6A4D"/>
<path d="M42.4999 0H35.2312V4.38949L42.4999 7.12387V0Z" fill="#FFA64D"/>
<path d="M39.1797 11.5135L49.7687 8.77914V4.38965H42.5L39.1797 11.5135Z" fill="#E62E6B"/>
<path d="M42.4999 4.38965H35.2312V8.77914L42.4999 11.5135V4.38965Z" fill="#FF6A4D"/>
<path d="M49.7687 8.77881H42.5L39.1797 29.1427L61.7406 26.4083V23.4528C61.7404 17.0011 56.9666 11.197 49.7687 8.77881Z" fill="#9999FF"/>
<path d="M42.5 8.77881H35.2313C28.0334 11.197 23.2594 17.0011 23.2594 23.4528V26.4083L42.4998 29.1427V8.77881H42.5Z" fill="#B3CCFF"/>
<path d="M39.1797 37.5938L61.7404 34.8594V26.4087H42.5L39.1797 37.5938Z" fill="#6666FF"/>
<path d="M42.5015 26.4087H23.2611V34.8594L42.5015 37.5938V26.4087Z" fill="#9999FF"/>
<path d="M39.1797 46.0445L61.7404 43.3101V34.8594H42.5L39.1797 46.0445Z" fill="#9999FF"/>
<path d="M42.5015 34.8594H23.2611V43.3101L42.5015 46.0445V34.8594Z" fill="#B3CCFF"/>
<path d="M39.1797 54.4952L61.7404 51.7608V43.3101H42.5L39.1797 54.4952Z" fill="#6666FF"/>
<path d="M42.5015 43.3101H23.2611V51.7608L42.5015 54.4952V43.3101Z" fill="#9999FF"/>
<path d="M42.5 70.0002C44.9838 70.0002 47.1803 68.969 48.492 67.3992C49.7823 68.9348 51.9186 69.9612 54.3306 69.9991C56.268 70.0294 58.1017 69.4218 59.5055 68.2876C60.9257 67.1401 61.7406 65.5471 61.7406 63.9168V51.7607H42.5L39.1797 60.8804L42.5 70.0002Z" fill="#9999FF"/>
<path d="M23.2611 51.7607V63.9168C23.2611 65.5469 24.0757 67.14 25.4962 68.2876C26.9 69.4217 28.7325 70.0289 30.6711 69.9991C33.0831 69.9611 35.2194 68.9348 36.5097 67.3992C37.8212 68.969 40.0177 70.0002 42.5015 70.0002V51.7607H23.2611Z" fill="#B3CCFF"/>
</svg>
