<svg width="65" height="70" viewBox="0 0 65 70" fill="none" xmlns="http://www.w3.org/2000/svg">
<g clip-path="url(#clip0)">
<path d="M46.1092 4.07841L34.3916 5.99383V19.9609H30.583V4.2314C30.583 3.21832 31.2711 2.35563 32.2016 2.20388L45.538 0.0232282C46.5777 -0.147669 47.5489 0.623419 47.7063 1.74314C47.8637 2.86285 47.149 3.90875 46.1092 4.07841Z" fill="#FDE55F"/>
<path d="M46.1093 4.07925L34.3916 5.99467V19.9617H32.5V2.15563L45.538 0.0242047C46.5777 -0.146692 47.5489 0.624396 47.7063 1.74411C47.8638 2.86369 47.149 3.90959 46.1093 4.07925Z" fill="#F7BA57"/>
<path d="M49.509 28.1642L48.3117 41.1455L45.8395 47.3037L47.1763 53.457L45.821 68.1514C45.7233 69.2014 44.9045 69.9998 43.9257 69.9998H21.0616C20.0828 69.9998 19.2639 69.2014 19.1662 68.1527L17.8061 53.457L19.1614 47.5242L16.6667 41.1454L15.4654 28.1641H49.509V28.1642Z" fill="#DB1F79"/>
<path d="M49.509 28.1646L49.4455 28.8481L48.3119 41.1459L45.8401 47.3037L47.1769 53.4573L45.8211 68.1517C45.7233 69.2017 44.9045 70.0002 43.9257 70.0002H32.5V28.1646H49.509Z" fill="#B2096A"/>
<path d="M33.1227 41.8283L33.134 52.7725C32.886 53.0398 32.7471 53.1895 32.4992 53.4569H17.8065L16.6665 41.1455H32.488C32.7357 41.4121 32.8748 41.5617 33.1227 41.8283Z" fill="#E85B8E"/>
<path d="M48.312 41.1455L47.1771 53.4572H32.5V41.1455H48.312Z" fill="#DB1F79"/>
<path d="M49.6385 19.2778H15.3614C13.258 19.2778 11.5529 21.1141 11.5529 23.3794V26.7973C11.5529 27.9299 12.4055 28.8481 13.4571 28.8481H51.5428C52.5944 28.8481 53.4471 27.9299 53.4471 26.7973V23.3794C53.4471 21.1141 51.7418 19.2778 49.6385 19.2778Z" fill="#F0FAFF"/>
<path d="M53.4471 23.3794V26.7973C53.4471 27.9293 52.594 28.8481 51.5428 28.8481H32.5V19.2778H49.6385C51.7421 19.2778 53.4471 21.1138 53.4471 23.3794Z" fill="#CEE6F4"/>
</g>
<defs>
<clipPath id="clip0">
<rect width="65" height="70" fill="white"/>
</clipPath>
</defs>
</svg>
