<svg width="80" height="70" viewBox="0 0 80 70" fill="none" xmlns="http://www.w3.org/2000/svg">
<path d="M12.5849 11.041L17.6385 69.9998H56.4743L61.5279 11.041C61.5279 11.041 12.5849 11.041 12.5849 11.041Z" fill="#E4F7FF"/>
<path d="M37.0562 11.041V69.9998H56.474L61.5276 11.041H37.0562Z" fill="#CBEDFD"/>
<path d="M47.242 24.7527H42.541V5.33313L66.2443 0L67.4151 3.98385L47.242 8.52264V24.7527Z" fill="#84D4F0"/>
<path d="M21.9999 65.8864L18.3565 23.3813H55.7559L52.1126 65.8864H21.9999Z" fill="#E8596E"/>
<path d="M37.0562 23.3813V65.8864H52.1126L55.7559 23.3813H37.0562Z" fill="#DB2E44"/>
<path d="M42.3451 43.436L29.5981 38.156L35.6325 27.0024L48.3794 32.2825L42.3451 43.436Z" fill="#E4F7FF"/>
<path d="M30.323 61.0601L27.2496 49.0166L41.0133 46.3271L44.0869 58.3707L30.323 61.0601Z" fill="#E4F7FF"/>
<path d="M37.0562 47.0998V59.744L44.0871 58.3702L41.0135 46.3267L37.0562 47.0998Z" fill="#CBEDFD"/>
<path d="M48.3795 32.2822L37.0562 27.5918V41.2449L42.3451 43.4357L48.3795 32.2822Z" fill="#CBEDFD"/>
</svg>
