<svg width="60" height="50" viewBox="0 0 60 50" fill="none" xmlns="http://www.w3.org/2000/svg">
<path d="M4.47589 37.0562V43.606C4.47589 47.1373 7.91113 50.0001 12.1489 50.0001H47.8512C52.0888 50.0001 55.5242 47.1374 55.5242 43.606V37.0562H4.47589Z" fill="#FED841"/>
<path d="M30 37.0562V50.0001H47.8512C52.0888 50.0001 55.5241 47.1374 55.5241 43.606V37.0562H30Z" fill="#FDB118"/>
<path d="M4.47589 31.5061H55.5242V40.0114H4.47589V31.5061Z" fill="#FF1F2E"/>
<path d="M30 31.5061H55.5241V40.0114H30V31.5061Z" fill="#BF0030"/>
<path d="M26.8755 40.4203L36.0142 31.5061H11.4998L20.6385 40.4203C22.2759 42.0173 25.2382 42.0173 26.8755 40.4203Z" fill="#FDB118"/>
<path d="M30 31.5061V37.3725L36.0142 31.5061H30Z" fill="#F9851C"/>
<path d="M55.5241 25.0918H4.47586C2.00391 25.0918 0 26.7617 0 28.8217C0 30.8816 2.00391 32.5516 4.47586 32.5516H55.5241C57.9961 32.5516 60 30.8816 60 28.8217C60 26.7617 57.9961 25.0918 55.5241 25.0918Z" fill="#BF5C15"/>
<path d="M55.5241 25.0918H30V32.5516H55.5241C57.9961 32.5516 60 30.8816 60 28.8217C60 26.7617 57.9961 25.0918 55.5241 25.0918Z" fill="#994910"/>
<path d="M4.47589 16.6731V25.0888C7.6662 25.0888 7.6662 26.854 10.8566 26.854C14.0472 26.854 14.0472 25.0888 17.2376 25.0888C20.428 25.0888 20.428 26.854 23.6185 26.854C26.8088 26.854 26.8088 25.0888 29.9991 25.0888C33.1895 25.0888 33.1895 26.854 36.3801 26.854C39.5706 26.854 39.5706 25.0888 42.7612 25.0888C45.9518 25.0888 45.9518 26.854 49.1426 26.854C52.3334 26.854 52.3334 25.0888 55.5241 25.0888V16.6731H4.47589Z" fill="#7AD425"/>
<path d="M30 16.6731V25.0888C33.1896 25.0891 33.19 26.854 36.3802 26.854C39.5707 26.854 39.5707 25.0888 42.7613 25.0888C45.9519 25.0888 45.9519 26.854 49.1427 26.854C52.3335 26.854 52.3334 25.0888 55.5241 25.0888V16.6731H30Z" fill="#6EBD21"/>
<path d="M36.2368 0H23.7633C13.1112 0 4.47589 7.19609 4.47589 16.0728V19.9645H55.5242V16.0728C55.5242 7.19609 46.8889 0 36.2368 0Z" fill="#FED841"/>
<path d="M55.5241 16.0729C55.5241 7.19609 46.8888 0 36.2367 0H30V19.9646H55.5241V16.0729Z" fill="#FDB118"/>
<path d="M16.9659 11.5803H20.3254V14.51H16.9659V11.5803Z" fill="#99490F"/>
<path d="M28.3204 11.5803H31.6798V14.51H28.3204V11.5803Z" fill="#99490F"/>
<path d="M30 11.5803H31.6796V14.51H30V11.5803Z" fill="#662C05"/>
<path d="M39.6748 11.5803H43.0342V14.51H39.6748V11.5803Z" fill="#662C05"/>
<path d="M22.6431 6.37573H26.0025V9.30542H22.6431V6.37573Z" fill="#99490F"/>
<path d="M33.9974 6.37573H37.3568V9.30542H33.9974V6.37573Z" fill="#662C05"/>
</svg>
