<svg width="70" height="60" viewBox="0 0 70 60" fill="none" xmlns="http://www.w3.org/2000/svg">
<path d="M29.782 0H40.2178V42.3848H29.782V0Z" fill="#FED841"/>
<path d="M35 0H40.218V42.3848H35V0Z" fill="#FDB118"/>
<path d="M19.3461 5.53735H29.7819V47.9222H19.3461V5.53735Z" fill="#FED841"/>
<path d="M24.5641 5.53735H29.7821V47.9222H24.5641V5.53735Z" fill="#FDB118"/>
<path d="M40.218 5.53735H50.6539V47.9222H40.218V5.53735Z" fill="#FED841"/>
<path d="M45.4359 5.53735H50.6539V47.9222H45.4359V5.53735Z" fill="#FDB118"/>
<path d="M50.6539 12.6084H61.0897V33.8008H50.6539V12.6084Z" fill="#FED841"/>
<path d="M55.8719 12.6084H61.0899V33.8008H55.8719V12.6084Z" fill="#FDB118"/>
<path d="M8.91022 12.6084H19.3461V33.8008H8.91022V12.6084Z" fill="#FED841"/>
<path d="M14.1281 12.6084H19.3461V33.8008H14.1281V12.6084Z" fill="#FDB118"/>
<path d="M56.9469 59.9999H13.0531L6.22083 20.9614H22.5348L22.6885 22.5763C23.1785 27.7248 28.2831 31.7577 34.3096 31.7577H35.6904C41.7168 31.7577 46.8215 27.7247 47.3115 22.5763L47.4652 20.9614H63.7791L56.9469 59.9999Z" fill="#FF1F2E"/>
<path d="M63.7792 20.9614H47.4652L47.3115 22.5763C46.8215 27.7247 41.7169 31.7577 35.6904 31.7577H35V59.9999H56.9469L63.7792 20.9614Z" fill="#BF0030"/>
<path d="M47.4652 20.9614L47.3115 22.5763C46.8215 27.7247 41.7168 31.7577 35.6904 31.7577H34.3095C28.2831 31.7577 23.1785 27.7247 22.6885 22.5763L22.5366 20.9804L23.9819 59.9999H46.018L47.4661 20.9614H47.4652Z" fill="#FF4D55"/>
<path d="M47.4663 20.9614H47.4652L47.3115 22.5763C46.8215 27.7247 41.7169 31.7577 35.6904 31.7577H35V59.9999H46.018L47.4663 20.9614Z" fill="#FF1F2E"/>
<path d="M35 52.2052C26.8662 52.2052 20.7324 49.1897 20.7324 45.1906C20.7324 41.1916 26.8662 38.176 35 38.176C43.1338 38.176 49.2675 41.1916 49.2675 45.1906C49.2675 49.1897 43.1338 52.2052 35 52.2052Z" fill="#FEF7D5"/>
<path d="M35 38.176V52.2052C43.1338 52.2052 49.2676 49.1897 49.2676 45.1906C49.2676 41.1916 43.1338 38.176 35 38.176Z" fill="#FFDEA8"/>
</svg>
