<?xml version="1.0" encoding="iso-8859-1"?>
<!-- Generator: Adobe Illustrator 19.0.0, SVG Export Plug-In . SVG Version: 6.00 Build 0)  -->
<svg version="1.1" id="Capa_1" xmlns="http://www.w3.org/2000/svg" xmlns:xlink="http://www.w3.org/1999/xlink" x="0px" y="0px"
	 viewBox="0 0 464 464" style="enable-background:new 0 0 464 464;" xml:space="preserve">
<path style="fill:#FFBF41;" d="M396.12,48.12L392,44l-136.352,58.4c0.228,1.858,0.345,3.728,0.352,5.6
	c-0.007,26.51-21.502,47.995-48.012,47.988c-14.262-0.004-27.783-6.349-36.9-17.316L0,212v208h48c0-26.51,21.49-48,48-48
	s48,21.49,48,48h320V212C464,150.533,439.583,91.584,396.12,48.12z"/>
<g>
	<path style="fill:#FFD884;" d="M396.12,48.12L392,44l-136.352,58.4c0.228,1.858,0.345,3.728,0.352,5.6
		c-0.007,26.51-21.502,47.995-48.012,47.988c-14.262-0.004-27.783-6.349-36.9-17.316L0,212h464
		C464,150.533,439.583,91.584,396.12,48.12z"/>
	<circle style="fill:#FFD884;" cx="64" cy="276" r="24"/>
	<circle style="fill:#FFD884;" cx="312" cy="364" r="24"/>
	<circle style="fill:#FFD884;" cx="392" cy="284" r="32"/>
	<circle style="fill:#FFD884;" cx="200" cy="308" r="32"/>
</g>
<g>
</g>
<g>
</g>
<g>
</g>
<g>
</g>
<g>
</g>
<g>
</g>
<g>
</g>
<g>
</g>
<g>
</g>
<g>
</g>
<g>
</g>
<g>
</g>
<g>
</g>
<g>
</g>
<g>
</g>
</svg>
