<svg height="70" viewBox="0 0 512 512" width="70" xmlns="http://www.w3.org/2000/svg"><g id="flat"><path d="m416 336a15.98 15.98 0 0 1 24-13.842v-146.158h-368v88a32 32 0 0 1 0 64v56h368v-34.158a15.98 15.98 0 0 1 -24-13.842z" fill="#ea9d2d"/><path d="m34 384h444a10 10 0 0 1 10 10 54 54 0 0 1 -54 54h-356a54 54 0 0 1 -54-54 10 10 0 0 1 10-10z" fill="#eaeae8"/><circle cx="168" cy="240" fill="#d18d28" r="32"/><path d="m440 176-6.059-12.118a183.225 183.225 0 0 0 -105.941-91.882l-64.531 26.216a32 32 0 0 1 -58.061 23.584l-133.408 54.2z" fill="#fbb540"/><circle cx="272" cy="224" fill="#d18d28" r="16"/><circle cx="344" cy="128" fill="#ea9d2d" r="16"/><g fill="#d18d28"><circle cx="168" cy="320" r="16"/><circle cx="256" cy="328" r="24"/><circle cx="368" cy="280" r="40"/></g><circle cx="296" cy="144" fill="#ea9d2d" r="8"/><circle cx="296" cy="264" fill="#d18d28" r="8"/><circle cx="104" cy="216" fill="#d18d28" r="8"/><circle cx="360" cy="208" fill="#d18d28" r="8"/></g></svg>