<svg width="70" height="60" viewBox="0 0 70 60" fill="none" xmlns="http://www.w3.org/2000/svg">
<path d="M69.4179 28.2435C67.7115 34.4095 62.2254 39.242 55.1003 40.8549L55.0999 40.855C55.0326 40.8702 54.9655 40.8851 54.8979 40.8999C50.4094 41.8779 46.5932 44.4577 44.4277 47.9777C42.1035 51.7556 38.3586 54.8663 33.8826 56.7368C29.1387 58.7193 23.8272 59.2669 18.5217 58.3204C14.2499 57.5583 10.3252 55.7888 7.1716 53.2034C4.00547 50.6074 1.77887 47.3208 0.73242 43.6983C-1.05668 37.5047 0.467869 31.1289 4.91506 26.2057C6.7397 24.1858 7.39076 21.5077 6.65672 19.0415C6.28566 17.7947 6.11326 16.504 6.14443 15.2053C6.32476 7.67498 13.3403 1.54068 22.1156 1.23998C22.3466 1.23212 22.5767 1.22814 22.8061 1.22814C26.282 1.22814 29.5974 2.13248 32.4338 3.86017C36.5445 6.36412 41.5024 7.37779 46.3931 6.71463C47.4478 6.57166 48.5279 6.49912 49.6032 6.49912C55.8822 6.49912 61.7188 8.92302 65.6168 13.1496C69.5168 17.378 70.9022 22.8795 69.4179 28.2435Z" fill="#FFF8D5"/>
<path d="M69.4178 28.2434C67.7114 34.4094 62.2253 39.2419 55.1002 40.8547L55.0998 40.8549C55.0325 40.8701 54.9654 40.885 54.8978 40.8997C50.4094 41.8778 46.5931 44.4575 44.4276 47.9776C42.1034 51.7555 38.3586 54.8661 33.8825 56.7367C33.5284 56.8846 33.171 57.0237 32.8108 57.1555V4.08422C36.8458 6.42422 41.6509 7.35786 46.3931 6.71473C47.4479 6.57176 48.528 6.49923 49.6033 6.49923C55.8822 6.49923 61.7189 8.92313 65.6169 13.1497C69.5168 17.3779 70.9021 22.8793 69.4178 28.2434Z" fill="#FFF1AB"/>
<path d="M32.811 39.259C25.6478 39.259 19.82 34.2638 19.82 28.1239C19.82 21.984 25.6478 16.9887 32.811 16.9887C39.9743 16.9887 45.802 21.984 45.802 28.1239C45.802 34.2638 39.9743 39.259 32.811 39.259Z" fill="#FF9900"/>
<path d="M32.811 16.989C39.9743 16.989 45.8021 21.9842 45.8021 28.1241C45.8021 34.264 39.9743 39.2593 32.811 39.2593V16.989Z" fill="#FF5D00"/>
</svg>
