<svg width="60" height="50" viewBox="0 0 60 50" fill="none" xmlns="http://www.w3.org/2000/svg">
<path d="M56.6249 29.4714C56.6249 30.375 56.1858 31.1923 55.4759 31.7839C54.7648 32.3755 53.784 32.7415 52.7009 32.7415H7.29902C5.1327 32.7415 3.375 31.2778 3.375 29.4714C3.375 28.9875 3.50063 28.5291 3.72633 28.1165C3.92273 27.7577 4.19355 27.4344 4.52402 27.1589C5.23512 26.5673 6.21586 26.2014 7.29902 26.2014H52.701C54.2879 26.2014 55.6553 26.9861 56.2737 28.1165C56.4993 28.5291 56.6249 28.9875 56.6249 29.4714Z" fill="#884D00"/>
<path d="M56.2737 28.1166C56.0773 28.4744 55.8053 28.7986 55.476 29.0731C54.7649 29.6647 53.7841 30.0307 52.701 30.0307H7.29901C5.71335 30.0307 4.34601 29.246 3.72632 28.1167C3.92272 27.7579 4.19343 27.4347 4.52401 27.1592C5.23511 26.5676 6.21585 26.2017 7.29901 26.2017H52.701C54.2878 26.2016 55.6551 26.9863 56.2737 28.1166Z" fill="#AA6100"/>
<path d="M60 35.3811C60 39.5943 57.6593 42.725 53.8755 44.8017C50.0906 46.8793 44.8628 47.9029 39.0884 47.9029H20.9115C9.36293 47.9029 0 43.8076 0 35.3811C0 34.9114 0.140273 34.4662 0.393984 34.0657C0.608672 33.7242 0.905039 33.4162 1.26492 33.1539C2.04562 32.5837 3.12633 32.231 4.31801 32.231H55.6821C57.4227 32.231 58.923 32.9831 59.6061 34.0657C59.8597 34.4663 60 34.9115 60 35.3811Z" fill="#FFA733"/>
<path d="M59.6061 34.066C58.7913 36.8714 56.7494 39.0568 53.8756 40.6343C50.0907 42.712 44.8628 43.7356 39.0884 43.7356H20.9116C10.751 43.7356 2.28346 40.5663 0.394043 34.066C0.60873 33.7245 0.905098 33.4165 1.26498 33.1541C2.04568 32.5839 3.12639 32.2312 4.31807 32.2312H55.6822C57.4227 32.2312 58.923 32.9834 59.6061 34.066Z" fill="#FFB655"/>
<path d="M46.6859 24.8293L36.535 33.2884C36.2801 33.4999 36.008 33.6869 35.7202 33.8485C33.5709 35.0611 30.6265 34.8752 28.7224 33.2884L18.5715 24.8293H46.6859Z" fill="#EEBF00"/>
<path d="M46.686 24.8293L36.5351 33.2884C36.2802 33.4998 36.0081 33.6869 35.7203 33.8485C34.9458 33.6289 34.2188 33.262 33.6016 32.7466L24.1008 24.8293H46.686Z" fill="#FFD422"/>
<path d="M58.8606 26.0094C58.8606 26.4526 58.7729 26.9059 58.5825 27.3481C57.8372 29.0812 55.8418 29.754 54.2866 28.7965L52.4215 27.649C51.12 26.847 49.46 27.1753 48.5182 28.4215L48.4389 28.5262C47.535 29.7236 45.9591 30.0793 44.6723 29.378L40.4958 27.1021C39.5322 26.5776 38.3771 26.6345 37.4648 27.2536L34.1178 29.5223C33.1566 30.1739 31.932 30.2013 30.9452 29.5924L27.1273 27.2342C26.1515 26.6315 24.9415 26.6507 23.984 27.285L20.5077 29.5854C19.5746 30.2024 18.4012 30.2379 17.4364 29.6799L12.9354 27.0737C12.0499 26.5614 10.9826 26.5471 10.0849 27.0361L5.8865 29.3242C3.09075 29.6241 1.73079 27.9133 1.73079 27.9133C1.06118 26.9436 0.994034 25.794 1.35638 24.8293C1.78692 23.6767 2.82989 22.7883 4.18622 22.7883H55.815C57.1445 22.7883 58.207 23.6635 58.6437 24.8243C58.785 25.1962 58.8606 25.5978 58.8606 26.0094Z" fill="#6DC82A"/>
<path d="M58.6437 24.8242C58.6254 24.875 58.6047 24.9248 58.5827 24.9757C57.8374 26.7098 55.842 27.3827 54.2868 26.4252L52.4217 25.2766C51.1202 24.4756 49.4602 24.8039 48.5184 26.0491L48.4391 26.1548C47.5352 27.3521 45.9593 27.7079 44.6725 27.0065L40.496 24.7307C39.5324 24.2052 38.3773 24.2631 37.465 24.8821L34.118 27.1509C33.1568 27.8024 31.9322 27.8289 30.9454 27.22L27.1275 24.8618C26.1517 24.2591 24.9417 24.2794 23.9842 24.9126L20.5078 27.2139C19.5746 27.8299 18.4013 27.8664 17.4364 27.3084L12.9355 24.7021C12.0499 24.1889 10.9827 24.1746 10.0849 24.6646L5.88656 26.9516C3.09082 27.2524 1.73086 25.5407 1.73086 25.5407C1.57348 25.312 1.44914 25.0731 1.35645 24.8292C1.78699 23.6766 2.82996 22.7881 4.18629 22.7881H55.8151C57.1445 22.7882 58.2069 23.6634 58.6437 24.8242Z" fill="#7ED63E"/>
<path d="M57.8191 20.6963C57.8276 21.0348 57.774 21.361 57.6691 21.669C57.1971 23.0393 55.6821 24.0415 53.8866 24.0415C46.8364 24.0415 28.0582 23.9094 25.226 23.9876C25.1626 23.9896 25.0992 23.9917 25.0369 23.9927C21.4606 24.1055 20.6458 24.5832 20.6458 26.172V31.9852C20.6458 32.284 20.5006 32.5554 20.2653 32.7516C20.0299 32.9478 19.7054 33.0687 19.3468 33.0687C18.6283 33.0687 18.0465 33.5535 18.0465 34.1522V36.6843C18.0465 36.9414 18.0099 37.1905 17.9391 37.4304C17.5379 38.8148 16.0387 39.8425 14.2383 39.8425H14.142C12.0952 39.8425 10.4388 38.457 10.4449 36.7514L10.462 32.1682C10.4632 31.8165 10.6352 31.4973 10.9121 31.2676C11.1902 31.0368 11.572 30.8945 11.9953 30.8945C12.8418 30.8945 13.5285 30.3223 13.5285 29.6168V26.172C13.5285 24.9949 12.3844 24.0415 10.972 24.0415H6.18792C4.03507 24.0415 2.2237 22.6256 2.17975 20.8315C2.13581 18.9907 3.91424 17.4863 6.1135 17.4863H53.8086C55.9626 17.4863 57.7764 18.9022 57.8191 20.6963Z" fill="#FF3501"/>
<path d="M57.8189 20.6963C57.8275 21.0348 57.7738 21.361 57.6689 21.669C50.2052 21.663 32.3711 21.5399 29.6169 21.6151C25.8796 21.7178 25.0368 22.1844 25.0368 23.8006V23.9927C21.4604 24.1055 20.6456 24.5832 20.6456 26.172V31.9852C20.6456 32.284 20.5004 32.5554 20.2651 32.7516C20.0297 32.9478 19.7052 33.0687 19.3466 33.0687C18.6281 33.0687 18.0463 33.5535 18.0463 34.1522V36.6843C18.0463 36.9414 18.0097 37.1905 17.939 37.4304C16.1752 37.1936 14.8297 35.9158 14.8358 34.3789L14.8529 29.7967C14.8541 29.4439 15.0261 29.1258 15.3031 28.8961C15.5811 28.6653 15.9629 28.523 16.3862 28.523C17.2328 28.523 17.9195 27.9508 17.9195 27.2453V23.8005C17.9195 22.6234 16.7754 21.67 15.3629 21.67H10.5789C8.42602 21.67 6.61465 20.2541 6.57071 18.4601C6.56215 18.1216 6.61583 17.7953 6.722 17.4863H53.8084C55.9624 17.4863 57.7763 18.9022 57.8189 20.6963Z" fill="#FF5023"/>
<path d="M35.317 14.1543L26.6139 21.4099C25.7418 22.1366 24.7135 22.654 23.6181 22.96C20.9175 23.7203 17.8145 23.2029 15.6653 21.4099L6.95874 14.1543H35.317Z" fill="#EEBF00"/>
<path d="M35.3168 14.1543L26.6137 21.4099C25.7416 22.1366 24.7133 22.654 23.618 22.96C22.5238 22.654 21.4956 22.1366 20.6246 21.4099L11.918 14.1543H35.3168Z" fill="#FFD422"/>
<path d="M60 15.1749C60 15.2288 59.9975 15.2816 59.9939 15.3345C59.9463 16.0165 59.595 16.6315 59.051 17.0849C58.4643 17.5738 57.6544 17.8757 56.7591 17.8757H3.24094C1.45148 17.8756 0 16.666 0 15.1749C0 11.9385 1.80035 9.50196 4.51922 7.66924C6.72574 6.18116 9.53848 5.09044 12.483 4.29053C20.7213 2.05538 30 2.09698 30 2.09698C30 2.09698 60 1.96182 60 15.1749Z" fill="#FFA733"/>
<path d="M60 15.1749C60 15.2288 59.9976 15.2816 59.9939 15.3345H9.82761C8.03827 15.3345 6.58667 14.1249 6.58667 12.6337C6.58667 9.39727 8.38702 6.96075 11.1059 5.12813C11.5425 4.83331 12.0024 4.55489 12.483 4.29053C20.7214 2.05538 30 2.09698 30 2.09698C30 2.09698 60 1.96182 60 15.1749Z" fill="#FFB655"/>
<path d="M46.1252 6.82195C46.6454 7.28074 46.6208 8.00408 46.0703 8.43767C45.5198 8.87117 44.6518 8.85066 44.1316 8.39197C43.6114 7.93328 42.6539 6.34373 43.2044 5.91013C43.755 5.47654 45.605 6.36306 46.1252 6.82195Z" fill="#FFF5CC"/>
<path d="M38.8554 12.4703C39.1269 13.0595 38.7738 13.7207 38.0667 13.9469C37.3596 14.1732 36.5662 13.879 36.2947 13.2897C36.0232 12.7005 35.8637 10.9269 36.5707 10.7007C37.2778 10.4745 38.5839 11.881 38.8554 12.4703Z" fill="#FFF5CC"/>
<path d="M31.3716 7.76953C31.3716 8.40078 30.7575 8.9124 30.0001 8.9124C29.2426 8.9124 28.6287 8.40068 28.6287 7.76953C28.6287 7.13828 29.2427 5.43506 30.0001 5.43506C30.7576 5.43496 31.3716 7.13828 31.3716 7.76953Z" fill="#FFF5CC"/>
<path d="M23.8306 13.1864C23.6412 13.7975 22.8931 14.165 22.1597 14.0072C21.4264 13.8494 20.9854 13.226 21.1748 12.6148C21.3641 12.0037 22.4698 10.4825 23.2033 10.6403C23.9366 10.7981 24.02 12.5754 23.8306 13.1864Z" fill="#FFF5CC"/>
<path d="M16.2855 8.20806C15.9553 8.77603 15.1351 9.01353 14.4533 8.73833C13.7717 8.46314 13.4867 7.77964 13.8169 7.21147C14.1472 6.6435 15.5908 5.33354 16.2726 5.60884C16.9543 5.88413 16.6157 7.64009 16.2855 8.20806Z" fill="#FFF5CC"/>
</svg>
