<svg width="70" height="60" viewBox="0 0 70 60" fill="none" xmlns="http://www.w3.org/2000/svg">
<g clip-path="url(#clip0)">
<path d="M47.3069 5.39062C42.0555 5.39062 37.5027 7.85202 35.0001 11.4386C32.4975 7.85202 27.9441 5.39062 22.6933 5.39062C14.7759 5.39062 8.19894 10.9113 8.19894 17.6971C8.19894 20.6159 9.42941 23.253 11.4396 25.3977C13.2853 23.8857 15.8835 22.9715 18.5912 22.9715C23.1446 22.9715 26.9187 25.5034 28.2726 29.0195C31.1031 27.9648 33.4412 26.1713 35.0001 23.9562C36.559 26.1713 38.8971 27.9648 41.7276 29.0195C43.0815 25.5034 46.8556 22.9715 51.409 22.9715C54.1162 22.9715 56.7144 23.8857 58.5606 25.3977C60.5708 23.253 61.8013 20.6159 61.8013 17.6971C61.8013 10.9113 55.2243 5.39062 47.3069 5.39062ZM22.6933 22.9715C19.2881 22.9715 16.5399 20.6159 16.5399 17.6971C16.5399 14.7789 19.2881 12.4233 22.6933 12.4233C26.0984 12.4233 28.8467 14.7789 28.8467 17.6971C28.8467 20.6159 26.0984 22.9715 22.6933 22.9715ZM47.3069 22.9715C43.9018 22.9715 41.1535 20.6159 41.1535 17.6971C41.1535 14.7789 43.9018 12.4233 47.3069 12.4233C50.7115 12.4233 53.4603 14.7789 53.4603 17.6971C53.4603 20.6159 50.7115 22.9715 47.3069 22.9715Z" fill="#FF9100"/>
<path d="M47.307 5.39062C42.0556 5.39062 37.5027 7.85202 35.0002 11.4386V23.9562C36.5591 26.1713 38.8972 27.9648 41.7277 29.0195C43.0815 25.5034 46.8557 22.9715 51.4091 22.9715C54.1162 22.9715 56.7144 23.8857 58.5606 25.3977C60.5708 23.253 61.8013 20.6159 61.8013 17.6971C61.8013 10.9113 55.2244 5.39062 47.307 5.39062ZM47.307 22.9715C43.9018 22.9715 41.1536 20.6159 41.1536 17.6971C41.1536 14.7789 43.9018 12.4233 47.307 12.4233C50.7116 12.4233 53.4604 14.7789 53.4604 17.6971C53.4604 20.6159 50.7116 22.9715 47.307 22.9715Z" fill="#FF641A"/>
<path d="M23.3651 35.0523C22.2372 36.2525 20.5293 37.0362 18.5912 37.0362C15.1925 37.0362 12.3011 34.6751 12.3011 31.7623C12.3011 28.8491 15.1925 26.488 18.5912 26.488C20.5293 26.488 22.2372 27.2716 23.3651 28.4719C24.2682 26.1286 26.0664 24.1511 28.4574 22.8574C25.8827 20.7613 22.4225 19.4553 18.5912 19.4553C10.6615 19.4553 4.09634 24.9654 4.09634 31.7623C4.09634 38.5587 10.6615 44.0688 18.5912 44.0688C22.4225 44.0688 25.8827 42.7628 28.4574 40.6667C26.0664 39.3731 24.2682 37.3956 23.3651 35.0523Z" fill="#FDBF00"/>
<path d="M51.4089 19.4553C47.5775 19.4553 44.1174 20.7613 41.5427 22.8574C43.9336 24.1511 45.7318 26.1286 46.6349 28.4719C47.7628 27.2716 49.4708 26.488 51.4089 26.488C54.8071 26.488 57.699 28.8491 57.699 31.7623C57.699 34.6751 54.8071 37.0362 51.4089 37.0362C49.4708 37.0362 47.7628 36.2525 46.6349 35.0523C45.7318 37.3956 43.9336 39.3731 41.5427 40.6667C44.1174 42.7628 47.5775 44.0688 51.4089 44.0688C59.3386 44.0688 65.9037 38.5587 65.9037 31.7623C65.9037 24.9654 59.3386 19.4553 51.4089 19.4553Z" fill="#FF9100"/>
<path d="M35.0001 19.4553C27.0827 19.4553 20.642 24.976 20.642 31.7623C20.642 38.5482 27.0827 44.0688 35.0001 44.0688C42.9175 44.0688 49.3577 38.5482 49.3577 31.7623C49.3577 24.976 42.9175 19.4553 35.0001 19.4553ZM35.0001 37.0362C31.595 37.0362 28.8467 34.6806 28.8467 31.7623C28.8467 28.8436 31.595 26.488 35.0001 26.488C38.4053 26.488 41.1535 28.8436 41.1535 31.7623C41.1535 34.6806 38.4053 37.0362 35.0001 37.0362Z" fill="#FFDA2D"/>
<path d="M49.3578 31.7623C49.3578 38.5482 42.9176 44.0688 35.0002 44.0688V37.0362C38.4048 37.0362 41.1536 34.6806 41.1536 31.7623C41.1536 28.8436 38.4053 26.488 35.0002 26.488V19.4553C42.9176 19.4553 49.3578 24.976 49.3578 31.7623Z" fill="#FDBF00"/>
<path d="M0.321262 34.3542C-0.022137 34.8276 -0.101178 35.4108 0.141285 35.9308L8.34548 53.5121C8.6579 54.18 9.41146 54.6176 10.2505 54.6176H35.0008L22.804 41.5402L0.321262 34.3542Z" fill="#FF641A"/>
<path d="M69.6797 34.3542L48.8803 40.5528L35.0002 54.6176H59.7505C60.5895 54.6176 61.3431 54.18 61.6555 53.5121L69.8597 35.9308C70.1022 35.4108 70.0231 34.8276 69.6797 34.3542Z" fill="#F03800"/>
<path d="M69.6775 34.3644L36.1488 54.3014C35.8204 54.5119 35.4102 54.6177 35.0001 54.6177C34.5899 54.6177 34.1798 54.5119 33.8513 54.3014L0.322632 34.3644C0.322632 34.3291 0.322632 34.3291 0.363754 34.2939C0.732788 33.8013 1.34802 33.5203 2.0455 33.5203H67.9547C68.6521 33.5203 69.2674 33.8013 69.6364 34.2939C69.6775 34.3291 69.6775 34.3291 69.6775 34.3644Z" fill="#FFF4CA"/>
<path d="M69.6776 34.3644L36.1489 54.3014C35.8205 54.5119 35.4103 54.6177 35.0002 54.6177V33.5203H67.9547C68.6522 33.5203 69.2674 33.8018 69.6365 34.2939C69.6776 34.3291 69.6776 34.3291 69.6776 34.3644Z" fill="#FFE1BA"/>
</g>
<defs>
<clipPath id="clip0">
<rect width="70" height="60" fill="white"/>
</clipPath>
</defs>
</svg>
